# 
# Wavefront OBJ file
# Converted by the 3D Exploration 1.5.30
# XDimension Software, LLC
# http://www.xdsoft.com/explorer/
# 
mtllib Shipwreck.mtl
# object ShipWreck
g ShipWreck
v 184.568 66.7199 1216.1
v 184.568 -66.7199 1216.1
v -175 -111.786 1265.35
v -175 111.786 1265.35
v -285.976 -274.289 717.024
v 540.619 -175.302 717.024
v 540.619 175.302 717.024
v -285.976 274.289 717.024
v -331.264 -134.2 717.024
v 311.82 279.841 275.838
v -68.4836 358.938 275.838
v -289.66 297.524 270.338
v -344.129 130.449 270.338
v -68.4836 -358.938 270.338
v 311.82 -279.841 270.338
v 605.164 -173.925 -1262.66
v 605.164 173.925 -1062.66
v 317.097 286.902 -172.662
v 56.6364 357.152 -172.662
v 317.097 -286.902 -885
v -179.072 329.843 270.338
v -75.0632 347.987 494.588
v -181.101 319.424 494.588
v -179.072 -329.843 270.338
v -287.138 -287.884 494.588
v -181.101 -319.424 494.588
v -338.955 128.281 494.588
v -338.955 -128.281 533.588
v 457.299 225.103 -61.162
v 314.459 -283.376 -61.162
v 313.14 281.61 104.588
v 385.879 253.595 -61.162
v 384.262 252.048 104.588
v 418.638 244.241 -1062.66
v 459.215 226.442 -756.912
v 417.247 242.928 -756.912
v 313.14 -281.61 104.588
v 362.688 -260.577 104.588
v 528.72 -197.899 -61.162
v 530.934 -199.048 -756.912
v 315.778 -285.14 -756.912
v 425.122 -242.066 -1262.66
v 424.239 -241.348 -885
v 361.798 -259.719 187.463
v 312.48 -280.726 187.463
v -338.955 24.755 533.588
v -337.661 24.7447 609.15
v -338.955 64.1405 494.588
v -337.661 63.87 609.15
v 121.668 -318.19 270.338
v 305.203 -275.999 382.463
v 116.715 -313.564 382.463
v 216.744 298.716 275.838
v 315.778 285.14 -60.537
v 220.673 304.29 -60.537
v 169.206 308.378 275.838
v 173.12 314.092 -60.537
v 54.2381 339.258 -60.537
v 605.164 80.4436 -1062.66
v 605.55 11.7192 -1019.6
v 601.396 11.2328 -739.037
v 601.396 79.3492 -739.037
v 605.55 -173.438 -1019.6
v 595.116 -85.0168 270.338
v 581.492 -85.6754 382.009
v 581.492 -42.8377 382.009
v 595.116 -42.5084 270.338
v 301.439 -256.434 380.716
v -357.831 -127.134 617.982
v -310.342 -280.533 605.257
v -217.654 362.094 116.1
v -431.294 299.951 173.344
v -483.907 131.494 187.442
v 149.691 -282.681 17.6699
v -328.789 370.747 -318.443
v -546.755 307.179 -260.039
v -546.755 -307.179 -260.039
v 58.1195 -289.819 -344.469
v -324.474 -332.634 144.722
v -370.818 -290.234 389.301
v -268.394 -322.125 361.856
v -420.869 -129.311 402.712
v -420.869 130 402.712
v -57.2929 -312.396 -313.544
v -22.1791 -306.869 -168.438
v -489.024 -303.565 -43.3473
v -217.158 -197.092 575
v 435.499 -124.832 575
v 434.534 121.095 575
v -218.668 187.702 575
v 471.132 -105.608 -545.725
v 470.196 132.954 -546.908
v -226.675 214.041 -193.995
v -269.223 96.6633 -193.206
v -50.2353 -245.779 -192.552
v -260.93 -94.339 228.683
v -56.685 -242.765 228.442
v 92.2474 -215.655 227.592
v 454.186 -119.781 225.377
v 347.683 -154.163 226.059
v 470.664 13.6731 -546.317
v -268.864 5.15145 -192.752
v -261.658 91.3163 227.762
v -235.905 -174.136 -192.018
v -223.082 -202.658 18.552
v -233.491 -174.581 18.462
v -250.979 -121.235 228.769
v -254.309 -118.427 18.2825
v 17.7812 -229.21 228.017
v 14.2822 -228.011 438.517
v 174.809 -203.263 -193.844
v 96.0207 -216.545 17.089
v 170.761 -202.681 16.6615
v 294.431 -171.353 226.401
v 400.934 -136.972 225.718
v 354.598 -152.145 15.5275
v 461.772 -110.314 -310.17
v 409.146 -133.809 15.1741
v 305.668 -169.609 -194.64
v -183.059 224.986 -194.259
v -181.67 209.753 226.788
v -99.6125 230.832 226.29
v -101.505 222.809 436.827
v -180.676 -213.061 18.4
v -97.7951 -232.554 228.589
v -99.7246 -231.24 439.08
v -93.936 -235.183 -192.395
v -95.8656 -233.868 18.0967
v 453.948 -59.2165 225.076
v 470.43 73.3137 -546.612
v 461.3 9.89166 -310.766
v 461.064 69.9942 -311.064
v 461.536 -50.211 -310.468
v 288.497 185.072 -550.284
v 287.45 188.924 -635.797
v 162.613 209.24 -199.828
v 13.4723 235.159 -199.241
v 12.5231 220.493 436.292
v 165.298 220.119 -635.366
v -261.476 44.9025 227.992
v -261.112 -47.9252 228.453
v -265.079 1.82011 17.7355
v -264.898 -44.2648 17.9639
v -265.26 47.9049 17.5063
v -237.312 184.697 -193.798
v 394.405 -140.05 708.112
v 394.405 140.433 708.112
v -266.87 219.623 708.112
v -254.802 -203.778 707.476
v -211.816 -157.481 594.493
v 310.309 -99.6735 594.493
v 309.537 97.0682 594.493
v -213.024 150.354 594.493
vt 1 0.836398
vt 0.00559485 0
vt 0 1
vt 1 0.109345
vt 1 0
vt 0 0.812211
vt 0.997693 1
vt 0.0014747 0.173097
vt 1 1.24332
vt 0 -0.5
vt 0 1.5
vt 0.00559485 -0.463501
vt 1 1.24565
vt 1 -0.333491
vt 1 -0.337143
vt 0 0
vt 1 0.845391
vt 1 0.143952
vt 0.706644 0.714035
vt 0.857943 0.00588268
vt 0.56552 0.289519
vt 0.430184 0.603962
vt 0.505288 0.708805
vt 0.505288 0.604403
vt 0.6523 0.984284
vt 0.6523 0.712334
vt 0.359466 0.946465
vt 0.359466 0.28156
vt 0.430184 0.540277
vt 0.479721 0.540294
vt 0.432737 0.0433718
vt 0.424395 0.293062
vt 0 0.681957
vt 0 0.318043
vt 0.359466 0.0535355
vt 0.479721 0.291195
vt 1 1
vt 0.574311 0.0275812
vt 0.715886 0.988235
vt 0.56552 0.711603
vt 0.235534 0.613193
vt 0.0211557 0.817437
vt 0.235534 0.971984
vt 0 0.661363
vt 0.493661 0.642849
vt 0.68032 0.59461
vt 0.655232 0.5
vt 0.498606 0.904115
vt 0.425045 0.872672
vt 0.425045 0.831403
vt 0.331081 0.704742
vt 0.425045 0.810769
vt 0.569804 0.935818
vt 0.425045 0.707598
vt 0.498606 0.873244
vt 0.331081 0.658715
vt 0.427408 0.611594
vt 0.868665 0.918433
vt 1 0.919037
vt 0.569804 0.904817
vt 0.868665 0.93665
vt 0.569536 0.812468
vt 0.617699 0.761907
vt 0.569536 0.760866
vt 0.617699 0.874962
vt 0.569536 0.833108
vt 0.569536 0.87439
vt 0.427408 0.659596
vt 0.469072 0.550117
vt 0.56716 0.213254
vt 0.636792 0.249935
vt 0.493542 0.291765
vt 0.2169 0.47034
vt 0.349241 0.276701
vt 0.349241 0.362802
vt 0.304888 0.140659
vt 0.2169 0.0927524
vt 0.304888 0.0922213
vt 0.393594 0.192103
vt 0.393594 0.141586
vt 0.393594 0.365825
vt 0.850609 0.417178
vt 0.799941 0.367633
vt 0.850609 0.368235
vt 0.799941 0.465916
vt 0.903852 0.5
vt 1 0.417581
vt 1 0.499824
vt 0.426377 0.388655
vt 0.426377 0.366126
vt 0.524725 0.464904
vt 0.45916 0.366427
vt 0.524725 0.36703
vt 0.45916 0.389061
vt 0.349932 0.361083
vt 0.019482 0.307696
vt 0 0.143446
vt 0.443284 0.0751665
vt 0.624559 0.197214
vt 0.357393 0.100784
vt 0.346536 0.0539964
vt 0.517678 0
vt 0.393594 0.278964
vt 0 0.6903
vt 0.219011 0
vt 0.219011 1
vt 0.415033 0.378756
vt 1 0.996073
vt 0.366027 0.377817
vt 0.415033 0.257513
vt 0.981102 0.00531483
vt 0.366027 0.255635
vt 0.857982 0.532039
vt 0.981102 0.533426
vt 0.857982 0.726322
vt 1 0.729443
vt 0 0.3097
vt 0.201574 1
vt 0.798426 1
vt 0.639932 0.558622
vt 0.926587 1
vt 0.929374 0.739264
vt 0.999644 0.562476
vt 1 0.737762
vt 0.287589 0.0645822
vt 0.114117 0.179617
vt 0.288001 0.182333
vt 1 0.780711
vt 0.725454 0.581518
vt 0.998966 0.587494
vt 0.727387 0.933498
vt 0.453382 0.842746
vt 0.726928 0.852956
vt 0.451391 0.46559
vt 0.177334 0.350473
vt 0.450838 0.355639
vt 0.453825 0.921373
vt 0.454269 1
vt 0.452938 0.764119
vt 0.724899 0.471162
vt 0 0.0114912
vt 0.635115 0
vt 0.635333 0.0625886
vt 0.11456 0.343246
vt 0 0.948825
vt 0.639448 0.344608
vt 0 0.00874645
vt 0 0.972408
vt 0.176602 0.18214
vt 0.722998 0
vt 0.997287 0.255212
vt 0.72359 0.187837
vt 0.997084 0.190687
vt 0.450096 0.184988
vt 0.723195 0.0626126
vt 0.450286 0.245689
vt 0.789517 0.522617
vt 0.998946 0.074571
vt 0.999473 0.537286
vt 0.311633 0.019592
vt 0 0.953997
vt 0.789252 0.289467
vt 0.788986 0.0563182
vt 0.789783 0.755766
vt 0.999736 0.768643
vt 0.3119 0.254533
vt 0.450238 0.195401
vt 0.723721 0.0673797
vt 0.723604 0
vt 0.451548 0.705483
vt 0.999743 0.929579
vt 0.998384 0.498704
vt 0.723955 0.202139
vt 0.724369 0.380114
vt 0 0.0133579
vt 0.45035 0.259945
vt 0.450649 0.37133
vt 0.451248 0.594099
vt 0 0.936792
vt 0.998974 0.718315
vt 0.724666 0.490709
vt 0.724964 0.601304
vt 0.997429 0.0684479
# 183 texture verticies
vn -0.92221 -0.0144861 -0.386418
vn -0.909245 -0.0252915 -0.415492
vn -0.934133 -0.00366424 -0.356907
vn 0 0 -1
vn 0.0982019 0.884572 -0.455948
vn 0.107702 0.899371 -0.423713
vn 0.09684 -0.924848 -0.367803
vn 0.0902501 -0.915474 -0.392126
vn 0.10336 -0.933553 -0.343213
vn 0.0885691 0.868581 -0.487568
vn 0.802745 0.00157755 -0.596321
vn 0.80117 0 -0.598437
vn 0.804312 0.00315508 -0.594199
vn -0.974146 0.0196226 0.225066
vn -0.956479 -0.173415 0.234682
vn -0.945398 -0.202693 0.25522
vn -0.977983 -0.0628683 0.198987
vn -0.991281 0.0726402 0.10993
vn -0.978424 0.201924 0.0437447
vn -0.999936 0 0.01129
vn -0.95067 0.309243 0.0244103
vn -0.950455 0.309861 0.0249244
vn -0.971748 0.177463 0.155605
vn -0.985988 -0.0160336 0.166043
vn -0.999169 -0.0143144 0.0381661
vn -0.999462 -0.0143123 0.0295033
vn -0.913037 -0.30576 0.269951
vn -0.913101 -0.305111 0.27047
vn -0.966415 0.0537411 0.251304
vn -0.94925 -0.14965 0.276638
vn -0.915379 -0.295924 0.272965
vn -0.999122 0 0.0418913
vn -0.967868 0.15603 0.197194
vn -0.91439 -0.306443 0.264544
vn -0.918139 0.307656 0.249739
vn -0.959699 0 0.28103
vn -0.0375381 0.974704 0.220325
vn 0.134105 0.953445 0.270108
vn 0.267061 0.953343 0.140769
vn 0.154248 0.955377 0.251919
vn -0.257602 0.962517 0.0848645
vn -0.257875 0.962422 0.085117
vn 0.381708 0.924166 0.0146728
vn 0.324329 0.94445 0.0531557
vn 0.206053 0.976571 0.0620582
vn 0.101148 0.985171 0.138594
vn 0.201979 0.978586 0.0396811
vn 0.377164 0.92607 0.0118733
vn 0.207744 0.976628 0.0551414
vn 0.383785 0.923338 0.0124896
vn -0.279832 0.95843 0.0557283
vn -0.289973 0.955879 0.047024
vn 0.359166 0.933219 0.010135
vn 0.368586 0.929547 0.00931681
vn 0.35274 0.935704 0.00562499
vn 0.37051 0.928747 0.0122848
vn 0.354656 0.934956 0.00870016
vn 0.213692 0.974826 0.0636322
vn 0.231987 0.964094 0.129247
vn 0.204485 0.965947 0.158529
vn 0.219691 0.974463 0.0464546
vn 0.200351 0.979533 0.0193443
vn 0.197366 0.98017 0.0177248
vn -0.280263 0.959003 0.0420183
vn -0.25733 0.962612 0.0846118
vn 0.106729 -0.993805 -0.0309955
vn 0.176003 -0.984275 -0.015049
vn 0.136992 -0.99057 0.00222966
vn 0.292655 -0.949146 0.116081
vn 0.147112 -0.971437 0.186193
vn 0.262354 -0.959336 0.104136
vn -0.0827448 -0.98573 0.146595
vn 0.0429263 -0.973713 0.223696
vn -0.284586 -0.956773 0.0599643
vn 0.0197653 -0.994022 0.107378
vn -0.254207 -0.966212 0.0425889
vn 0.371781 -0.927951 0.0261899
vn 0.368244 -0.929705 0.00674505
vn 0.3814 -0.924384 0.00692077
vn 0.391222 -0.920145 0.0166867
vn 0.354034 -0.935226 0.00343381
vn 0.379429 -0.925195 0.00695151
vn 0.353209 -0.935542 0.00195781
vn 0.353972 -0.935255 0.00131035
vn 0.381213 -0.924359 0.015375
vn 0.39185 -0.919938 0.0129345
vn 0.388935 -0.921078 0.0185495
vn 0.38051 -0.924351 0.0280716
vn 0.370507 -0.928741 0.0128445
vn 0.377748 -0.925472 0.0284289
vn -0.979846 -0.193075 -0.0512152
vn 0.134105 -0.953445 0.270108
vn 0.154248 -0.955377 0.251919
vn -0.124089 -0.991707 0.0334481
vn 0.189773 -0.981791 -0.00852717
vn -0.267018 -0.956773 0.115268
vn -0.279864 -0.953454 0.112259
vn -0.168324 -0.985719 -0.00508344
vn 0.209279 -0.9766 0.0495365
vn 0.814065 0 0.580774
vn 0.960267 -0.0673538 0.270833
vn 0.974237 0.0446301 0.221068
vn 0.999002 0.0284528 0.0344318
vn 0.998736 0.0474428 0.0166058
vn 0.99264 -1.03407e-07 0.121105
vn 0.994495 -0.095619 0.0428575
vn 0.991624 -0.127747 0.0190571
vn 0.99264 3.87775e-07 0.121105
vn 0.999959 0.00284701 0.00863851
vn 0.99989 0 0.0148027
vn 0.999922 -0.0105328 0.00675711
vn 0.999932 0 0.0116427
vn 0.135705 0 0.990749
vn 0.236587 0.97124 0.0268174
vn 0.267658 0.963176 0.0255009
vn 0.259833 0.965091 0.0329411
vn 0.252219 0.967102 0.0331479
vn 0.247363 0.968073 0.0405786
vn -0.245526 0.968748 0.0352749
vn -0.161097 0.980526 0.112319
vn -0.248452 0.968024 0.0346529
vn 0.245397 -0.96941 0.00494786
vn 0.224549 -0.974325 0.0163607
vn 0.249105 -0.968448 0.00746567
vn 0.31292 -0.949779 -0.000466917
vn 0.310074 -0.950712 0.00110348
vn 0.318633 -0.947877 0.00138172
vn 0.20247 -0.979204 0.0128274
vn 0.152151 -0.977599 0.145431
vn 0.179131 -0.983788 0.00857834
vn 0.307195 -0.951644 -0.00231554
vn 0.225316 -0.684183 0.693632
vn 0.231131 -0.972741 0.018786
vn 0.198315 -0.979855 0.0235682
vn -0.0961511 0.978732 0.181215
vn -0.242357 0.969526 0.0358008
vn -0.243038 0.969353 0.0358719
vn 0.128006 0.975983 0.176269
vn 0.194102 0.970222 0.144895
vn 0.171262 0.984957 0.022985
vn -0.0463284 -0.97311 0.225633
vn 0.239505 -0.964878 0.107925
vn -0.161148 -0.982256 0.0959365
vn -0.247482 -0.968869 0.00674478
vn -0.236941 -0.971517 0.00360493
vn -0.238294 -0.971186 0.00373479
vn -0.235626 -0.971836 0.00390784
vn -0.238951 -0.971024 0.00387227
vn -0.238254 -0.971195 0.00387994
vn -0.239648 -0.970853 0.00357587
vn 0.307225 -0.951633 0.00267392
vn 0.999627 0.00405509 0.0270134
vn 0.9992 0.00411649 0.0397886
vn 0.9992 0.00411672 0.0397886
vn 0.998568 0.00404885 0.0533385
vn 0.99877 0.0176996 0.046308
vn 0.998564 0.00391704 0.0534291
vn 0.999503 0.00407557 0.0312727
vn 0.9992 0.0041157 0.0397888
vn 0.99905 0.024558 0.0360093
vn 0.999627 0.00405486 0.0270135
vn 0.9992 0.00411689 0.0397888
vn 0.999492 0.0142927 0.0284906
vn 0.70517 -0.691378 -0.157263
vn -0.936932 -0.349292 0.0123722
vn -0.937602 -0.347563 0.0101358
vn -0.936172 -0.351342 0.0118483
vn -0.976378 0.206536 0.0634738
vn -0.93973 0.341251 0.0213522
vn -0.939885 0.340833 0.0212176
vn -0.99397 -0.109032 -0.0116103
vn -0.966747 -0.255605 -0.00814628
vn -0.998734 -0.049801 0.00711609
vn -0.988631 -0.121136 0.0890818
vn -0.981436 -0.178078 0.0712108
vn -0.99745 -0.00355916 0.0712793
vn -0.99745 -0.00355843 0.0712797
vn -0.982359 0.171761 0.0739468
vn -0.939885 0.340833 0.0212176
vn -0.999832 -0.00383288 0.0179168
vn -0.999832 -0.0038325 0.0179165
vn -0.964073 -0.265262 -0.0140992
# 182 normals
usemtl Material__1
f 153/1/1 149/2/1 148/3/2
f 149/2/1 153/1/1 150/4/3
usemtl Material__2
f 153/5/4 151/6/4 150/7/4
f 151/6/4 153/5/4 152/8/4
usemtl Material__1
f 152/9/5 148/10/5 147/11/6
f 149/12/7 151/13/7 146/11/8
f 151/13/7 149/12/7 150/14/9
f 148/10/5 152/9/5 153/15/10
f 146/16/11 152/17/11 147/3/12
f 152/17/11 146/16/11 151/18/13
usemtl Material__3
f 73/19/14 86/20/15 82/21/16
f 73/19/14 77/5/17 86/20/15
f 49/22/18 27/23/19 48/24/20
f 27/23/19 12/25/21 13/26/22
f 27/23/19 8/27/23 12/25/21
f 49/22/18 8/27/23 27/23/19
f 49/22/18 9/28/24 8/27/23
f 9/28/24 47/29/25 46/30/26
f 9/28/24 49/22/18 47/29/25
f 82/21/16 70/31/27 69/32/28
f 9/28/24 4/33/29 8/27/23
f 3/34/30 9/28/24 5/35/31
f 9/28/24 46/30/26 28/36/32
f 77/5/17 73/19/14 76/37/33
f 82/21/16 80/38/34 70/31/27
f 9/28/24 3/34/30 4/33/29
f 82/21/16 86/20/15 80/38/34
f 76/37/33 73/19/14 72/39/35
f 73/19/14 82/21/16 83/40/36
usemtl Material__4
f 8/41/37 1/42/38 7/43/39
f 1/42/38 8/41/37 4/44/40
f 71/45/41 75/46/42 76/47/41
f 7/43/39 33/48/43 10/49/44
f 7/43/39 53/50/45 22/51/46
f 22/51/46 53/50/45 56/52/47
f 7/43/39 22/51/46 8/41/37
f 33/48/43 7/43/39 29/53/48
f 22/51/46 56/52/47 11/54/49
f 10/49/44 33/48/43 31/55/50
f 8/41/37 23/56/51 12/57/52
f 8/41/37 22/51/46 23/56/51
f 36/58/53 17/37/54 34/59/55
f 33/48/43 29/53/48 32/60/56
f 35/61/57 17/37/54 36/58/53
f 29/53/48 17/37/54 35/61/57
f 29/53/48 7/43/39 17/37/54
f 57/62/58 19/63/59 58/64/60
f 18/65/61 55/66/62 54/67/63
f 18/65/61 57/62/58 55/66/62
f 57/62/58 53/50/45 55/66/62
f 53/50/45 57/62/58 56/52/47
f 7/43/39 10/49/44 53/50/45
f 12/57/52 23/56/51 21/68/64
f 57/62/58 18/65/61 19/63/59
f 71/45/41 76/47/41 72/69/65
f 85/70/66 78/71/67 74/72/68
f 6/73/69 52/74/70 51/75/71
f 26/76/72 5/77/73 25/78/74
f 52/74/70 5/77/73 26/76/72
f 14/79/75 26/76/72 24/80/76
f 52/74/70 26/76/72 14/79/75
f 6/73/69 51/75/71 15/81/77
f 43/82/78 41/83/79 20/84/80
f 43/82/78 40/85/81 41/83/79
f 63/86/82 42/87/83 16/88/84
f 63/86/82 43/82/78 42/87/83
f 44/89/85 15/81/77 45/90/86
f 39/91/87 37/92/88 30/93/89
f 44/89/85 6/73/69 15/81/77
f 39/91/87 38/94/90 37/92/88
f 39/91/87 44/89/85 38/94/90
f 63/86/82 40/85/81 43/82/78
f 63/86/82 39/91/87 40/85/81
f 6/73/69 39/91/87 63/86/82
f 6/73/69 44/89/85 39/91/87
f 15/81/91 51/75/91 68/95/91
f 5/77/73 2/96/92 3/97/93
f 85/70/66 74/72/68 79/98/94
f 78/71/67 85/70/66 84/99/95
f 79/98/94 81/100/96 80/101/97
f 2/96/92 5/77/73 6/73/69
f 85/70/66 79/98/94 86/102/98
f 79/98/94 80/101/97 86/102/98
f 52/74/70 14/79/75 50/103/99
f 52/74/70 6/73/69 5/77/73
usemtl Material__5
f 1/104/100 6/105/101 7/106/102
f 7/106/102 67/107/103 17/108/104
f 6/105/101 66/109/105 7/106/102
f 64/110/106 6/105/101 63/111/107
f 6/105/101 65/112/108 66/109/105
f 6/105/101 64/110/106 65/112/108
f 61/113/109 63/111/107 60/114/110
f 17/108/104 62/115/111 59/116/112
f 61/113/109 64/110/106 63/111/107
f 61/113/109 67/107/103 64/110/106
f 62/115/111 67/107/103 61/113/109
f 62/115/111 17/108/104 67/107/103
f 6/105/101 1/104/100 2/117/100
f 7/106/102 66/109/105 67/107/103
usemtl Material__6
f 2/118/113 4/5/113 3/16/113
f 4/5/113 2/118/113 1/119/113
usemtl Material__9
f 136/120/114 92/121/115 134/122/116
f 136/120/114 134/122/116 139/123/117
f 139/123/117 134/122/116 135/124/118
f 121/125/119 123/126/120 122/127/121
usemtl Material__8
f 119/128/122 113/129/123 111/130/124
f 118/131/125 100/132/126 116/133/127
f 98/134/128 110/135/129 109/136/130
f 100/132/126 118/131/125 115/137/131
f 100/132/132 115/137/132 99/138/132
f 114/139/133 112/140/134 113/129/123
usemtl Material__9
f 90/141/135 123/126/120 121/125/119
f 90/141/135 121/125/119 93/142/136
f 93/142/136 121/125/119 120/143/137
f 123/126/120 90/141/135 138/144/138
f 138/144/138 90/141/135 89/145/139
f 138/144/138 89/145/139 136/120/114
f 138/144/138 136/120/114 137/146/140
f 136/120/114 89/145/139 92/121/115
usemtl Material__8
f 87/147/141 110/135/129 88/148/142
f 87/147/141 126/149/143 110/135/129
f 105/150/144 126/149/143 87/147/141
f 95/151/145 128/152/146 127/153/147
f 105/150/144 125/154/148 126/149/143
f 124/155/149 125/154/148 105/150/144
f 128/152/146 125/154/148 124/155/149
f 128/152/146 97/156/150 125/154/148
f 97/156/150 128/152/146 95/151/145
f 114/139/133 110/135/129 98/134/128
f 114/139/133 88/148/142 110/135/129
f 88/148/142 100/132/126 99/138/151
f 88/148/142 114/139/133 100/132/126
f 112/140/134 114/139/133 98/134/128
f 114/139/133 113/129/123 119/128/122
usemtl Material__10
f 131/157/152 91/158/153 101/159/154
f 99/160/155 89/161/156 88/16/157
f 91/158/153 133/162/158 117/163/159
f 92/37/160 132/164/161 130/165/162
f 131/157/152 133/162/158 91/158/153
f 129/166/163 89/161/156 99/160/155
f 131/157/152 129/166/163 133/162/158
f 129/166/164 132/164/164 92/37/164
f 132/164/161 129/166/163 131/157/152
f 129/166/163 92/37/160 89/161/156
usemtl Material__7
f 107/167/165 106/168/166 105/169/167
f 103/170/168 93/37/169 145/171/170
f 102/172/171 108/173/172 143/174/173
f 107/167/165 105/169/167 87/175/174
f 96/176/175 87/175/174 141/177/176
f 141/177/176 87/175/174 140/178/177
f 140/178/177 87/175/174 103/170/168
f 103/170/168 87/175/174 90/179/178
f 103/170/168 90/179/178 93/37/169
f 103/170/168 145/171/170 94/180/179
f 141/177/176 142/181/180 143/174/173
f 142/181/180 140/178/177 144/182/181
f 108/173/172 104/183/182 106/168/166
f 102/172/171 143/174/173 142/181/180
f 106/168/166 107/167/165 108/173/172
f 107/167/165 87/175/174 96/176/175
f 141/177/176 140/178/177 142/181/180
f 108/173/172 102/172/171 104/183/182
