# 
# Wavefront OBJ file
# Converted by the 3D Exploration 1.5.30
# XDimension Software, LLC
# http://www.xdsoft.com/explorer/
# 
mtllib Prisonshipold.mtl
# object PrisonShipold
g PrisonShipold
v 7.1524 279.358 -447.216
v 7.1524 279.358 -622.908
v -291.524 279.358 -622.908
v -347.606 -227.816 -795.064
v -291.524 -265.369 -795.064
v -347.606 -223.608 880.474
v 257.487 -265.369 -795.064
v 338.705 -167.5 -795.064
v 338.705 -167.5 750
v 257.487 -265.369 750
v 257.487 265.233 750
v -347.606 223.608 880.474
v -347.606 227.639 -795.064
v 338.705 167.363 -795.064
v 338.705 167.363 750
v -347.606 -95.855 -794.873
v -347.606 95.7183 -794.873
v -347.606 95.7183 880.474
v -347.606 -95.855 880.474
v -291.524 -62.6277 -832
v -291.524 62.5238 -832
v -291.524 62.5238 894.432
v -291.524 -62.6277 894.432
v 224.869 -221.287 -832.732
v 291.597 -145.152 -832.732
v 291.597 146.156 -832.732
v -231.266 223.608 -832.732
v -291.524 156.325 -832
v -291.524 -155.322 -832
v -231.266 -221.287 -832.732
v -291.524 -154.767 -967.278
v -230.7 -220.732 -967.278
v 225.435 -220.732 -967.278
v 292.163 -144.597 -967.278
v 292.163 146.711 -967.278
v 235.435 222.845 -967.278
v -230.7 223.608 -967.278
v -291.524 156.88 -967.278
v 46.2923 275.327 -383.376
v 163.678 275.327 -383.328
v 7.1524 275.233 -447.216
v 197.219 275.233 -447.216
v 258.467 265.233 -794.971
v 197.219 265.233 -795.064
v -21.5972 222.845 -967.278
v -21.5972 223.608 -832.732
v 7.1524 265.233 -622.908
v -291.524 276.785 -622.63
v -291.524 275.233 -622.908
v 166.872 343.398 -622.908
v 43.888 343.398 -622.908
v 43.888 333.398 -726.726
v 166.872 343.398 -726.726
v 166.872 333.398 -726.726
v 211.594 395 -621.311
v -2.4308 395 -621.311
v -2.4308 395 -726.726
v 211.594 395 -726.726
v 166.872 447.216 -621.311
v 43.888 447.216 -621.311
v 43.888 391.314 -726.726
v 43.888 447.216 -726.726
v 166.872 447.216 -726.726
v 166.872 391.314 -726.726
v 48.0131 395 -581.381
v 162.925 395 -581.381
v 43.888 311.454 -967.733
v 168.4 311.454 -967.733
v 43.888 391.314 -902.873
v 169.088 391.314 -902.873
v -163.748 343.398 -726.726
v -163.748 343.398 -622.908
v 242.336 -170.802 -942.348
v 242.311 172.943 -942.348
v -243.818 173.652 -937.348
v -243.928 -170.802 -937.348
v 46.0096 -290.369 749.572
v 46.0096 290.233 749.572
v -291.524 265.233 750.684
v -291.524 290.233 750.684
v -291.524 -265.369 750.684
v -291.524 -290.369 750.684
v -4.028 223.608 982.278
v 126.931 223.608 894.432
v -219.65 94.4678 982.278
v -219.65 -94.5717 982.278
v -219.65 -223.608 982.278
v -219.65 223.608 982.278
v -4.028 -223.608 982.278
v 278.214 -204.841 894.432
v 278.214 204.853 894.432
v 126.931 -223.608 894.432
v 278.214 0 894.432
v -219.65 0 982.278
v -291.524 -1.13488e-14 894.432
v -4.028 0 982.278
v 338.705 0 750
v 338.705 0 -795.064
v 292.163 0 -967.278
v -291.524 -2.26976e-14 -967.278
v -291.524 0 -832
v 291.597 0 -832.732
vt 0.75 0.311865
vt 0.614236 0.375
vt 0.614236 0.311865
vt 0.5625 0.201836
vt 0.548974 0.202848
vt 0.548974 0.21875
vt 0.51306 0.202848
vt 0.548974 0.1875
vt 0.51306 0.1875
vt 0.5 0.201836
vt 0.51306 0.216004
vt 0.137363 0.212687
vt 0.862637 0.787313
vt 0.862637 0.212687
vt 0.137363 0.787313
vt 0.75 0.3125
vt 0.816296 0.281576
vt 0.816296 0.3125
vt 0.837854 0.25
vt 0.875 0.26122
vt 0.75 0.281576
vt 0.770909 0.25
vt 0.857093 0.3125
vt 0.274726 1
vt 1 0.791045
vt 0.274726 0.791045
vt 1 0
vt 0.274726 0.216418
vt 1 0.216418
vt 1 1
vt 0.285714 0.791045
vt 0.285714 0.216418
vt 0.274726 0
vt 0 0.772599
vt 0.497043 0.29795
vt 1 0.273585
vt 0.497043 0
vt 0.497043 0.976682
vt 1 1
vt 0 0.273585
vt 0 1
vt 0.907497 0.796112
vt 0.0775803 0.875032
vt 0.0775803 0.796112
vt 0.907497 0.875032
vt 0 0.971552
vt 0.0775803 0.953888
vt 0 0.778519
vt 0.0775803 0.75
vt 0.92773 0.943895
vt 1 0.875032
vt 1 0.944157
vt 1 0.806903
vt 0.92773 0.875032
vt 0.92773 0.806642
vt 0.907497 0.953888
vt 0.907447 1
vt 0.0775803 1
vt 0.907497 0.75
vt 1 0.771031
vt 0.92773 0.77077
vt 0.907497 1
vt 0.119364 0.65724
vt 0.118793 0.522404
vt 1 0.546701
vt 0.930987 0.630233
vt 1 0.630233
vt 0.911665 0.74172
vt 0.930987 0.546475
vt 0.930987 0.72869
vt 0.911665 0.522404
vt 0 0.551115
vt 0.052219 0.5
vt 0.119144 0.74172
vt 0.823217 0.522404
vt 0.911617 0.742112
vt 0 0.637251
vt 0.0450595 0.689566
vt 0.0450595 0.75
vt 0.911665 0.5
vt 0.930611 0.522404
vt 1 0.522404
vt 1 0.728916
vt 0 0.409333
vt 0.00743746 0.42756
vt 0.900142 0.42756
vt 0.919925 0.375
vt 0.992007 0.290015
vt 0.919925 0.28971
vt 0.992007 0.375
vt 0.919925 0.460841
vt 0 0.375
vt 0.919925 0.409333
vt 0.992007 0.461145
vt 0.900243 0.5
vt 0.00743746 0.497787
vt 0.199848 0.345367
vt 2.54566e-08 0.34375
vt 0.0532929 0.360723
vt 0.343454 0.360723
vt 0.487488 0.34614
vt 0.199848 0.283136
vt 0.199848 0.264547
vt 0.0532929 0.264547
vt 0.433384 0.283136
vt 0.286449 0.345367
vt 0.433384 0.346488
vt 0.487488 0.283136
vt 0.487108 0.25
vt 0.374875 0.25
vt 4.00177e-05 0.284353
vt 0.374875 0.283478
vt 0.487108 0.283765
vt 0.286449 0.283136
vt 0.533537 0.21875
vt 0.590157 0.21875
vt 0.543554 0.25
vt 0.5 0.21875
vt 0.625 0.246002
vt 0.944515 0.375
vt 0.822131 0.329674
vt 0.989578 0.3125
vt 0.822131 0.375
vt 0.55997 0.1875
vt 0.5625 0.1875
vt 0.545932 0.15625
vt 0.51443 0.15625
vt 0.124191 0.25
vt 0.221494 0.228648
vt 0.206735 0.25
vt 0.0280922 0.228658
vt 0.0428358 0.25
vt 0.124191 0
vt 0.0280922 0.0203861
vt 0.037114 0
vt 0.221893 0.020433
vt 0.212457 0
vt 0 0.0260515
vt 0 0.221419
vt 0.249571 0.225703
vt 0.25 0.0260515
vt 0.409952 0.0224036
vt 0.375 0.0511155
vt 0.427809 0.0511155
vt 0.375 0.0224036
vt 0.33999 0.0224036
vt 0.322133 0.0511155
vt 0.321416 0
vt 0.25 0.189566
vt 0.375 0.137251
vt 0.25 0.137251
vt 0.5 0.189566
vt 0.5 0.137251
vt 0.5 0.0511155
vt 0.25 0.0511155
vt 0.375 0.25
vt 0.489516 0.25
vt 0.260491 0.25
vt 0.428508 0
vt 0.5 0
vt 0.25 0
vt 0.900144 0.427594
vt 0 0.409363
vt 0.919927 0.409363
vt 0.00743483 0.427594
vt 0.919927 0.375
vt 0.919927 0.460223
vt 0.900245 0.5
vt 0.00743483 0.497691
# 169 texture verticies
vn 0 1 0
vn 0 0 -1
vn 0.0986303 0.901742 0.420873
vn -0.242961 0.969087 -0.0429032
vn 0.126214 0.687279 0.715344
vn -0.054254 0.689259 -0.722481
vn -0.167513 0.560024 -0.811365
vn -0.368136 0.34037 -0.865231
vn 0.0329417 0.683987 -0.72875
vn 0.0164748 0.673511 -0.738993
vn 0.0478843 0.994251 -0.0957687
vn -0.492243 0.869763 -0.0347628
vn -0.594163 0.804083 -0.020503
vn 0.759508 0.650498 0
vn -0.748088 0.6636 0
vn 0.75569 -0.654929 0
vn -0.772103 -0.634839 0.0289345
vn -0.797933 -0.599969 0.0577905
vn -0.744176 -0.667984 0
vn 0.550186 -0.497582 0.670603
vn 0.557349 0.477355 0.679334
vn -0.283533 0.568289 0.772435
vn -0.188107 0.587188 0.787291
vn -0.543701 0.482297 0.686862
vn 0 0.607452 0.794357
vn 0 -0.626953 0.779057
vn -0.185434 -0.607041 0.772733
vn -0.279462 -0.588316 0.758805
vn -0.536567 -0.502611 0.677848
vn 1 0 -9.87583e-08
vn 0.9804 0 0.197016
vn 1 0 -9.87583e-08
vn 0.922369 0 0.386309
vn 0.991376 0 0.13105
vn 0.768496 -0.637746 0.0519023
vn 0.760198 -0.630861 0.155287
vn 0.315499 -0.928402 0.196289
vn 0.999991 0 0.00420769
vn 0.999991 0 0.00420769
vn 0.579036 -0.134768 -0.804086
vn 0.624517 0 -0.781011
vn 0.517226 -0.260091 -0.815371
vn 0.452409 0.180638 -0.873325
vn 0.557251 0.195558 -0.806988
vn 0.769768 0.636214 0.0518516
vn 0.771432 0.636311 0.000244067
vn 0.318252 0.927324 0.19694
vn 0.773326 0.634009 -7.63723e-08
vn 0.769533 -0.638607 -3.03991e-08
vn 0.769533 -0.638607 -7.59978e-08
vn 0.241144 0.353685 -0.903746
vn 0.752035 -0.659123 0.000445666
vn 0.752035 -0.659123 0.00044574
vn 0.752035 -0.659123 0.000445592
vn 0.308248 -0.48653 -0.817479
vn 0.15296 -0.574139 -0.804343
vn 0.760274 0.630925 0.154651
vn 0.00144083 0.302645 -0.953102
vn -0.00329447 0 -0.999995
vn 0.00182428 0.999994 -0.0028352
vn 0.00364854 0.999977 -0.00567036
vn -0.140999 -0.499283 -0.854889
vn -0.134134 -0.531392 -0.836439
vn -0.0915034 -0.974654 0.204148
vn -0.400631 -0.908454 0.119191
vn -0.231866 -0.967396 0.101901
vn -0.0912268 0.974812 0.203515
vn -0.253769 0.961534 0.105139
vn -0.39971 0.908913 0.118779
vn -0.192849 -0.981228 0
vn 0 -1 0
vn 0.010508 0.999936 0.00421278
vn 0.0210041 0.999779 1.33254e-05
vn 0.127878 -0.940993 0.313336
vn 0.245656 -0.849133 0.467575
vn 0.114374 -0.921978 0.369968
vn -0.669846 0.742473 0.00624568
vn -0.575464 -0.817827 0.00101034
vn 0.127623 0.94129 0.312548
vn 0.245273 0.849775 0.466609
vn 0.114339 0.922306 0.369158
vn -0.471848 0.0842524 -0.877645
vn -0.37514 -0.219113 -0.900699
vn -0.470349 -0.084441 -0.878431
vn -0.736762 -0.676138 -0.00433457
vn -0.738345 -0.674397 -0.00588821
vn -0.735173 -0.677874 -0.0027809
vn 0 -0.999991 -0.00412457
vn -0.741986 0.670415 -0.000186292
vn -0.744909 0.66716 0.00273695
vn -0.739043 0.673651 -0.00310953
vn -0.509353 -0.860558 0
vn -1 0 0
vn -0.551552 -0.000602072 -0.83414
vn -0.552004 0 -0.833841
vn 0.644967 0.707839 0.288065
vn 0.161726 0.948689 0.271724
vn 0.472328 0.846188 0.246722
vn 0.877846 0.478921 -0.00465708
vn 0.906124 0.423003 0.00276986
vn 0.923736 0.382872 -0.0110069
vn -0.904768 0.425216 -0.0242024
vn 0 0.630439 -0.776239
vn -0.91779 0.396636 -0.0184738
vn -0.804216 0.594328 -0.00337013
vn -0.820612 0.570867 -0.0265889
vn -0.211969 0.939492 0.269116
vn 0.794009 0.607597 0.0193701
vn 0.799499 0.600639 0.00584154
vn -0.981779 0.189243 -0.0172308
vn -0.414203 0.874416 0.252652
vn 0 0 1
vn 0.999921 -0.0074334 0.0101358
vn 0.999921 0 0.0125799
vn -0.000249662 -0.15604 -0.987751
vn 0 -0.00513367 -0.999987
vn -0.447357 -1.07697e-05 -0.894356
vn -0.228406 -0.211231 -0.950375
vn -0.526623 -0.220576 -0.820984
vn -0.268422 0.26358 -0.926539
vn -0.540122 0.268092 -0.797744
vn 0.53189 -5.63682e-05 -0.846814
vn 0.291064 0.188345 -0.937981
vn 0.576523 0.275438 -0.769256
vn 0.352298 -0.225701 -0.908265
vn 0.578428 -0.274447 -0.76818
vn -0.00441794 0.479896 -0.877314
vn 0 0.446711 -0.894678
vn -0.584302 0.512113 -0.629549
vn -0.574202 -0.427842 -0.698029
vn -0.0051594 -0.479865 -0.877327
vn 0.576959 -0.525908 -0.624931
vn 0.572411 0.527797 -0.627516
vn -0.773957 0 0.633238
vn -0.702258 0 0.711923
vn -0.506196 0.59024 0.628794
vn 0.291148 0 0.956678
vn 0.24932 0 0.968421
vn -0.6226 0 0.782541
vn -0.505987 -0.590502 0.628717
vn -0.509725 0.860337 0
vn -0.55156 0.000601876 -0.834135
# 142 normals
usemtl Material__1
f 3/1/1 1/2/1 2/3/1
f 57/4/2 61/5/2 52/6/2
f 64/7/2 62/8/2 63/9/2
f 62/8/2 61/5/2 57/4/2
f 62/8/2 64/7/2 61/5/2
f 64/7/2 58/10/2 53/11/2
f 64/7/2 63/9/2 58/10/2
usemtl Material__2
f 60/12/1 63/13/1 62/14/1
f 63/13/1 60/12/1 59/15/1
usemtl Material__1
f 51/16/3 71/17/4 72/18/5
f 71/17/6 27/19/7 13/20/8
f 71/17/6 52/21/9 46/22/10
f 71/17/4 51/16/3 52/21/11
f 49/23/12 71/17/4 13/20/13
f 71/17/6 46/22/10 27/19/7
f 49/23/12 72/18/5 71/17/4
usemtl Material__2
f 55/24/14 63/25/14 59/26/14
f 57/27/15 60/28/15 62/29/15
f 58/30/16 50/31/16 53/25/16
f 50/31/16 58/30/16 55/24/16
f 51/32/17 57/27/17 52/29/18
f 51/32/17 56/33/19 57/27/17
f 60/28/15 57/27/15 56/33/15
f 66/34/20 50/31/20 55/24/20
f 63/25/14 55/24/14 58/30/14
f 59/26/21 66/34/21 55/24/21
usemtl Material__3
f 65/35/22 60/36/23 56/37/24
f 66/38/25 59/39/25 60/36/23
f 66/38/26 51/40/27 50/41/26
f 51/40/27 66/38/26 65/35/28
f 66/38/25 60/36/23 65/35/22
f 51/40/27 65/35/28 56/37/29
usemtl Material__1
f 8/42/30 97/43/31 9/44/31
f 97/43/31 8/42/30 98/45/32
f 91/46/33 97/43/31 15/47/34
f 90/48/33 9/44/31 97/43/31
f 9/44/35 90/48/36 10/49/37
f 26/50/38 99/51/39 35/52/38
f 34/53/38 102/54/39 25/55/38
f 102/54/39 34/53/38 99/51/39
f 25/55/40 98/45/41 8/42/42
f 98/45/41 25/55/40 102/54/41
f 98/45/41 26/50/43 14/56/44
f 98/45/41 102/54/41 26/50/43
f 98/45/32 15/47/34 97/43/31
f 90/48/33 97/43/31 91/46/33
f 15/47/45 43/57/46 11/58/47
f 99/51/39 26/50/38 102/54/39
f 15/47/45 14/56/48 43/57/46
f 7/59/49 9/44/35 10/49/37
f 9/44/35 7/59/49 8/42/50
f 26/50/43 43/57/51 14/56/44
f 15/47/34 98/45/32 14/56/30
f 33/60/52 25/55/52 24/61/53
f 25/55/52 33/60/52 34/53/54
f 24/61/55 8/42/42 7/59/56
f 8/42/42 24/61/55 25/55/40
f 91/46/57 15/47/45 11/58/47
f 26/50/43 44/62/58 43/57/51
f 78/63/59 77/63/59 82/64/59
f 37/65/60 46/66/60 45/67/61
f 7/68/56 30/69/62 24/70/55
f 7/68/56 5/71/63 30/69/62
f 87/72/64 6/73/65 81/64/66
f 88/72/67 79/64/68 12/73/69
f 5/71/70 10/74/37 81/64/66
f 5/71/70 7/68/71 10/74/37
f 11/74/47 48/75/72 79/64/68
f 48/75/72 11/74/47 43/76/73
f 10/74/37 89/77/74 81/64/66
f 10/74/37 92/78/75 89/77/74
f 92/78/75 10/74/37 90/79/76
f 13/80/13 79/64/68 48/75/77
f 4/80/78 81/64/66 6/73/65
f 12/73/69 79/64/68 13/80/13
f 83/77/79 79/64/68 88/72/67
f 83/77/79 11/74/47 79/64/68
f 11/74/47 84/78/80 91/79/81
f 11/74/47 83/77/79 84/78/80
f 78/63/59 82/64/59 80/64/59
f 13/80/8 27/69/7 28/81/82
f 46/66/60 37/65/60 27/69/1
f 4/80/83 30/69/62 5/71/63
f 4/80/83 29/81/84 30/69/62
f 81/64/66 89/77/74 87/72/64
f 29/81/85 32/65/85 30/69/86
f 29/81/85 31/82/87 32/65/85
f 32/65/88 24/70/88 30/69/88
f 24/70/88 32/65/88 33/83/88
f 27/69/89 38/82/89 28/81/90
f 4/80/78 5/71/70 81/64/66
f 27/69/89 37/65/91 38/82/89
f 22/84/92 18/85/92 17/86/92
f 101/87/93 31/88/93 29/89/93
f 100/90/93 101/87/93 28/91/93
f 101/87/93 100/90/93 31/88/93
f 95/92/93 21/93/93 101/87/93
f 22/84/92 17/86/92 21/93/92
f 21/93/93 95/92/93 22/84/93
f 100/90/93 28/91/93 38/94/93
f 28/91/82 17/86/94 13/95/8
f 28/91/82 21/93/95 17/86/94
f 12/96/93 17/86/93 18/85/93
f 17/86/93 12/96/93 13/95/93
f 50/97/96 40/98/97 42/99/98
f 50/97/96 44/100/99 68/101/100
f 50/97/96 42/99/101 44/100/99
f 51/102/102 47/103/102 41/104/102
f 69/105/1 64/106/1 70/107/1
f 67/108/103 70/107/103 68/101/103
f 67/108/104 45/109/105 46/110/106
f 51/102/3 39/111/107 40/98/97
f 68/101/100 26/112/108 35/113/109
f 69/105/1 61/114/1 64/106/1
f 70/107/103 67/108/103 69/105/103
f 67/108/104 46/110/106 52/114/110
f 51/102/3 41/104/111 39/111/107
f 51/102/3 40/98/97 50/97/96
f 26/112/108 68/101/100 44/100/99
f 51/115/3 72/116/5 47/117/112
f 72/116/5 51/115/3 50/118/96
f 47/117/112 72/116/5 49/119/112
f 70/120/113 54/121/113 68/122/100
f 52/121/110 69/120/93 67/122/104
f 54/121/113 70/120/113 64/123/114
f 52/121/110 61/123/93 69/120/93
f 36/124/115 45/125/116 67/126/116
f 36/124/115 67/126/116 68/127/116
f 99/128/117 74/129/118 35/130/119
f 73/131/120 99/128/117 34/132/121
f 100/133/122 76/134/123 31/135/124
f 75/136/125 100/133/122 38/137/126
f 76/134/123 74/129/118 73/131/120
f 100/133/122 75/136/125 76/134/123
f 32/138/127 73/131/120 33/139/128
f 32/138/127 76/134/123 73/131/120
f 73/131/120 34/132/121 33/139/129
f 74/129/118 76/134/123 75/136/125
f 35/130/119 74/129/118 36/140/130
f 74/129/118 37/141/131 36/140/115
f 37/141/131 74/129/118 75/136/125
f 75/136/125 38/137/126 37/141/132
f 31/135/124 76/134/123 32/138/133
f 99/128/117 73/131/120 74/129/118
f 22/142/134 94/143/134 85/144/135
f 94/143/134 22/142/134 95/145/134
f 94/143/134 23/146/134 86/147/135
f 94/143/134 95/145/134 23/146/134
f 23/146/136 19/148/136 86/147/136
f 92/149/137 96/150/138 89/151/137
f 96/150/138 84/152/137 83/153/137
f 96/150/138 92/149/137 84/152/137
f 88/154/112 96/150/138 83/153/137
f 96/150/138 88/154/112 94/143/112
f 96/150/138 87/155/112 89/151/137
f 87/155/112 96/150/138 94/143/112
f 84/152/137 93/156/112 91/157/112
f 93/156/112 92/149/137 90/158/112
f 93/156/112 84/152/137 92/149/137
f 18/159/139 88/154/139 12/160/139
f 18/159/139 85/144/135 88/154/139
f 22/142/140 85/144/140 18/159/140
f 19/148/139 6/161/139 87/155/139
f 19/148/139 87/155/139 86/147/135
f 16/162/141 23/163/141 20/164/141
f 23/163/141 16/162/141 19/165/141
f 23/163/93 101/166/93 20/164/93
f 101/166/93 23/163/93 95/92/93
f 29/167/84 16/162/142 20/164/95
f 29/167/84 4/168/83 16/162/142
f 6/169/93 19/165/93 16/162/93
f 6/169/93 16/162/93 4/168/93
