# 
# Wavefront OBJ file
# Converted by the 3D Exploration 1.5.30
# XDimension Software, LLC
# http://www.xdsoft.com/explorer/
# 
mtllib Prisonshipold.mtl
# object PrisonShipold
g PrisonShipold
v -291.524 -154.767 -977.831
v -230.7 -220.732 -977.831
v 225.435 -220.732 -977.831
v 292.163 -144.597 -977.831
v 292.163 146.711 -977.831
v 235.435 222.845 -977.831
v -230.7 223.608 -977.831
v -291.524 156.88 -977.831
v -340 -260 980.474
v 320 -260 850
v 320 260 850
v -340 260 980.474
v -311.524 -240 -962.278
v 312.163 -240 -962.278
v 7.1524 275.233 -387.216
v 197.219 275.233 -387.216
v -21.5972 240 -962.278
v 7.1524 265.233 -622.908
v 7.1524 265.233 -622.908
v -340 260 -622.908
v -340 260 -622.908
v 166.872 343.398 -582.908
v 105 390 -622.908
v 43.888 343.398 -622.908
v 43.888 343.398 -582.908
v 105 390 -622.908
v 43.888 343.398 -726.726
v 43.888 343.398 -726.726
v 166.872 343.398 -726.726
v 211.594 395 -621.311
v -2.4308 395 -621.311
v -2.4308 395 -726.726
v 211.594 395 -726.726
v 166.872 447.216 -581.311
v 43.888 447.216 -581.311
v 43.888 447.216 -726.726
v 166.872 447.216 -726.726
v 105 390 -962.733
v 105 390 -962.733
v -163.748 343.398 -726.726
v -163.748 343.398 -622.908
v 312.163 240 -962.278
v 312.163 240 -962.278
v -311.524 240 -962.278
vt 1 0.791045
vt 0.0878594 0.216418
vt 1 0.216418
vt 0.0878594 0.791045
vt 0.541232 1
vt 0.541232 0
vt 0 0.104206
vt 0.82694 1
vt 0 0.885678
vt 1 0.104206
vt 0.849827 0
vt 0.998283 0.90281
vt 0.171343 1
vt 0.148456 0
vt 1.95211e-07 0.651568
vt 1.5962 0.865024
vt -0.0669417 -0.105751
vt -0.137844 0.212687
vt 0.862637 0.787313
vt 0.862637 0.212687
vt -0.137844 0.787313
vt 1 0
vt 0 0.216418
vt 1 0.216418
vt 1 1
vt 0.0105075 0.791045
vt 1 0.791045
vt 0.274726 1
vt 0.0105075 0.216418
vt 0 0.791045
vt 0.274726 0
vt 1 1
vt 0 0.273585
vt 0 1
vt 1 0.273585
vt 0.497043 0
vt 0.494785 0.380952
vt 0.494785 1
vt 0 0.380952
vt 0.5 0.0802
vt 0 0.155787
vt 0.499605 0.25
vt 0 0
vt 0 0.75
vt 1 0.990385
vt 1 0.759615
vt 1 0.740385
vt 0 0.5
vt 1 0.509615
vt 1 0.260786
vt 0.0671594 0.5
vt 0 0.25
vt 1 0.497032
vt 0.193603 1.35108
vt 0.193603 0
vt 1.88643 0.512472
vt 0.5 0.25
vt 0.75 0
vt 0.75 0.25
vt 0.5 0
# 60 texture verticies
vn 0 0 -1
vn 0 0 1
vn 0 1 0
vn -0.748088 0.6636 0
vn 0.75569 -0.654929 0
vn -0.744176 -0.667984 0
vn 0.759508 0.650498 0
vn 0.659082 -0.0115687 0.751982
vn 0 -0.0153825 0.999882
vn -0.645935 -0.0117429 0.763302
vn 0.58504 0.808197 0.0674225
vn 0 0.980691 0.195566
vn 0.999991 0 -0.00432409
vn -0.999893 0 -0.014656
vn 0.193935 0 0.981014
vn -0.00102047 -0.999942 -0.0106796
vn -0.00204093 -0.999945 -0.010324
vn 0 -0.999939 -0.0110352
vn -0.00102047 0.999942 -0.0106796
vn -0.00204093 0.999945 -0.010324
vn 0 0.999939 -0.0110352
vn 0 -0.00303262 -0.999995
# 22 normals
usemtl Material__1
f 37/1/1 28/2/1 36/3/1
f 29/4/1 37/1/1 33/5/1
f 36/3/1 28/2/1 32/6/1
f 37/1/1 29/4/1 28/2/1
usemtl Material__2
f 2/7/1 5/8/1 3/9/1
f 7/10/1 2/7/1 8/11/1
f 2/7/1 6/12/1 5/8/1
f 2/7/1 7/10/1 6/12/1
f 3/9/1 5/8/1 4/13/1
f 8/11/1 2/7/1 1/14/1
usemtl Material__3
f 19/15/2 26/16/2 21/17/2
f 18/15/2 23/16/2 20/17/2
usemtl Material__4
f 35/18/3 37/19/3 36/20/3
f 37/19/3 35/18/3 34/21/3
f 32/22/4 35/23/4 36/24/4
f 33/25/5 22/26/5 29/27/5
f 22/26/5 33/25/5 30/28/5
f 25/29/6 32/22/6 28/24/6
f 30/28/7 37/27/7 34/30/7
f 25/29/6 31/31/6 32/22/6
f 35/23/4 32/22/4 31/31/4
f 37/27/7 30/28/7 33/25/7
f 34/30/8 22/26/8 30/28/8
usemtl Material__5
f 34/32/9 25/33/9 22/34/9
f 25/33/9 34/32/9 35/35/9
f 25/33/10 35/35/10 31/36/10
usemtl Material__6
f 40/37/3 24/34/3 27/38/3
f 24/34/3 40/37/3 41/39/3
usemtl Material__7
f 39/40/11 16/41/11 43/42/11
f 39/40/12 15/43/12 16/41/12
f 10/44/13 42/45/13 11/34/13
f 42/45/13 10/44/13 14/46/13
f 44/47/14 9/48/14 12/44/14
f 9/48/14 44/47/14 13/49/14
usemtl Material__8
f 12/22/15 10/34/15 11/25/15
f 10/34/15 12/22/15 9/43/15
usemtl Material__7
f 13/50/16 10/51/16 9/52/17
f 13/50/16 14/53/18 10/51/16
f 11/51/19 44/50/19 12/52/20
f 44/50/19 11/51/19 42/53/21
usemtl Material__9
f 42/54/22 17/55/22 38/56/22
usemtl Material__7
f 14/57/1 44/58/1 42/59/1
f 44/58/1 14/57/1 13/60/1
