# 
# Wavefront OBJ file
# Converted by the 3D Exploration 1.5.30
# XDimension Software, LLC
# http://www.xdsoft.com/explorer/
# 
mtllib Prisonshipold.mtl
# object PrisonShipold
g PrisonShipold
v -340 -260 -795.064
v -340 -260 880.474
v 320 -260 -795.064
v 320 -260 750
v 320 260 750
v -340 260 880.474
v -340 260 -795.064
v 320 260 -795.064
v -347.606 -95.855 -794.873
v -347.606 95.7183 -794.873
v -347.606 95.7183 880.474
v -347.606 -95.855 880.474
v -291.524 -62.6277 -832
v -291.524 62.5238 -832
v -291.524 62.5238 894.432
v -291.524 -62.6277 894.432
v 224.869 -221.287 -832.732
v 291.597 -145.152 -832.732
v 291.597 146.156 -832.732
v -231.266 223.608 -832.732
v -291.524 156.325 -832
v -291.524 -155.322 -832
v -231.266 -221.287 -832.732
v -291.524 -154.767 -962.278
v -230.7 -220.732 -962.278
v 225.435 -220.732 -962.278
v 292.163 -144.597 -962.278
v 292.163 146.711 -962.278
v 235.435 222.845 -962.278
v -230.7 223.608 -962.278
v -291.524 156.88 -962.278
v 7.1524 275.233 -387.216
v 197.219 275.233 -387.216
v 197.219 265.233 -795.064
v -21.5972 222.845 -962.278
v -21.5972 223.608 -832.732
v 7.1524 265.233 -622.908
v -340 260 -622.908
v -340 260 -762.908
v 166.872 343.398 -582.908
v 166.872 343.398 -622.908
v 43.888 343.398 -622.908
v 43.888 343.398 -582.908
v 43.888 333.398 -726.726
v 43.888 343.398 -726.726
v 43.888 343.398 -726.726
v 166.872 333.398 -726.726
v 166.872 343.398 -726.726
v 211.594 395 -621.311
v -2.4308 395 -621.311
v -2.4308 395 -726.726
v 211.594 395 -726.726
v 166.872 447.216 -581.311
v 43.888 447.216 -581.311
v 43.888 391.314 -726.726
v 43.888 391.314 -726.726
v 43.888 447.216 -726.726
v 166.872 447.216 -726.726
v 166.872 391.314 -726.726
v 166.872 391.314 -726.726
v 43.888 311.454 -962.733
v 168.4 311.454 -962.733
v 43.888 391.314 -902.873
v 169.088 391.314 -902.873
v -163.748 333.398 -726.726
v -163.748 343.398 -726.726
v -163.748 343.398 -622.908
v -219.65 94.4678 982.278
v -219.65 -94.5717 982.278
v -219.65 -223.608 982.278
v -219.65 223.608 982.278
v 258.214 -204.841 894.432
v 258.214 204.853 894.432
vt 0 0.844891
vt 0.909838 0.828916
vt 0.00751757 0.828916
vt 0.00751757 1
vt 0.909838 0.921018
vt 0.00751757 0.921018
vt 0 0.90506
vt 0.929834 0.90506
vt 0.929834 0.950156
vt 1 0.800593
vt 0.929834 0.800326
vt 0.929834 0.844891
vt 0.00751757 0.75
vt 0.909941 0.75
vt 1 0.950423
vt 0.909941 1
vt 0.508847 0.791045
vt 0.541232 1
vt 0.0878594 0.791045
vt 1 0.791045
vt 1 0.216418
vt 0.508847 0.216418
vt 0.541232 0
vt 0.0878594 0.216418
vt 0.862637 0.787313
vt -0.137844 0.212687
vt -0.137844 0.787313
vt 0.862637 0.212687
vt 0 0.791045
vt 0.0105075 0.791045
vt 0.274726 1
vt 1 0.791045
vt 1 1
vt 0 0.216418
vt 1 0
vt 0.274726 0
vt 1 0.216418
vt 0.0105075 0.216418
vt 0 0.273585
vt 1 0.273585
vt 0.497043 0
vt 1 1
vt 0 1
vt 0.684074 0
vt 0.930015 0.211212
vt 1 0.0125556
vt 0.315663 0
vt 0.0699846 0.211212
vt 0.318131 0.211212
vt 0 0.0125556
vt 0.379562 0.0925727
vt 0.620238 0.0925727
vt 0.681669 0.211212
vt 0.106075 1
vt 0.893949 1
vt 0 0
vt 0 0.459123
vt 0.494785 0.459123
vt 1 0.829416
vt 1 0.283243
vt 0.820475 0
vt 0.494785 1
vt 0.930228 0.693322
vt 0.909941 0.747509
vt 0 0.526255
vt 0.0777892 0.5
vt 0.0777892 0.747509
vt 1 0.554929
vt 1 0.693586
vt 0.930228 0.554665
vt 0.909941 0.5
vt 0 0.721261
vt 1 0.518691
vt 0.930228 0.518427
vt 0.483317 0.158136
vt 0.374875 0.125
vt 0.286449 0.158136
vt 0.199848 0.158136
vt 0.00324327 0.139547
vt 0.00324327 0.235723
vt 0.199848 0.220367
vt 0.343454 0.235723
vt 0.199848 0.139547
vt 0.433384 0.158136
vt 0.286449 0.220367
vt 0.433384 0.221488
vt 0.374875 0.158478
vt 0.483317 0.22114
vt 0.482937 0.125
vt 0.482937 0.158765
vt 1.95211e-07 0.651568
vt 1 0.278746
vt -0.0669417 -0.105751
vt 1 0.731707
vt 0.288524 0.274781
vt 0.778059 1
vt 0.288524 1
vt 0.944417 1.78814e-07
vt 0.914009 0.25
vt 0.11945 0.5
vt 0.0523533 0.25
vt 0.914009 0.5
vt 0.897473 0.25
vt 0.93338 0.291187
vt 0.93338 0.463966
vt 0 0.295587
vt 1 0.291401
vt 0.93338 0.370607
vt 1 0.370607
vt 0.0451753 0.476596
vt 0.933004 0.268362
vt 1 0.268362
vt 1 0.46418
vt 0 1.04048
vt 1 0.265088
vt 1 0.769119
vt 0 0.885678
vt 0.82694 1
vt 0.171343 1
vt 0 0.104206
vt 0.849827 0
vt 0.148456 0
vt 1 0.104206
vt 0.998283 0.90281
# 124 texture verticies
vn -0.509725 0.860337 0
vn -0.99893 0.0462519 0
vn -0.509353 -0.860558 0
vn -1 0 0
vn -0.998928 -0.0462903 0
vn -0.465328 -0.0823892 -0.881296
vn -0.56132 -0.0127437 -0.827501
vn -0.552004 0 -0.833841
vn -0.295243 -0.338566 -0.893423
vn -0.466773 0.0822478 -0.880544
vn -0.561497 0.0127414 -0.827381
vn -0.420414 0.123664 -0.898866
vn 0 0 -1
vn 0 1 0
vn 0.659082 -0.0115687 0.751982
vn 0.759508 0.650498 0
vn -0.748088 0.6636 0
vn 0.75569 -0.654929 0
vn -0.744176 -0.667984 0
vn -0.645935 -0.0117429 0.763302
vn 0 -0.0153825 0.999882
vn -0.631564 0.0148261 0.775182
vn -0.640304 0.029647 0.767549
vn -0.631561 -0.0148384 0.775184
vn -0.727166 0 0.686462
vn -0.640299 -0.0296714 0.767552
vn -0.506196 0.59024 0.628794
vn -0.773957 0 0.633238
vn -0.702258 0 0.711923
vn 0.180801 0 0.98352
vn -0.505987 -0.590502 0.628717
vn -0.405763 0.912946 -0.0434227
vn -0.218554 0.97481 -0.0444903
vn -0.00460103 0.696058 -0.717971
vn 0 0.694602 -0.719394
vn -0.00690156 0.696779 -0.717253
vn -0.384435 0.923152 0
vn -0.0138027 0.698916 -0.71507
vn 0.0132589 0.311119 -0.950278
vn 0.919406 0 0.393309
vn 0.991047 0 0.133516
vn 0.963688 0 0.267032
vn 1 0 0
vn 0.99999 0 0.00437009
vn 0.79846 0 -0.602048
vn 0.752035 -0.659123 0.000462867
vn 0.752035 -0.659123 0.000462944
vn 0.752035 -0.659123 0.00046279
vn 0.0942306 -0.565613 -0.819269
vn 0.142053 -0.488582 -0.860876
vn 0.272094 -0.238477 -0.932252
vn -0.82033 0.571242 -0.0272165
vn -0.835333 0.547384 -0.0508959
vn 0 0.960631 0.277828
vn 0.913948 0.405186 -0.0228639
vn 0.925082 0.379654 -0.00930872
vn 0.87823 0.478221 -0.00399757
vn -0.904886 0.425271 -0.0180435
vn 0 0.599775 -0.800168
vn 0.794069 0.607501 0.0199366
vn 0.834322 0.551276 0.00116296
vn -0.804216 0.594327 -0.0035002
vn 0.799497 0.600639 0.006067
vn 0 0 1
vn 0.301511 0.301511 0.904534
vn 0.408248 0.408248 0.816497
vn 0.57735 0.57735 0.57735
vn 0.999922 -0.00724026 0.0101993
vn 0.999921 0 0.0125799
vn 0.999865 -0.0144801 0.00781819
vn 0 -1 0
vn 0.0415335 -0.984387 0.171047
vn 0.0277531 -0.989707 0.140389
vn 0.0415239 0.984391 0.171026
vn 0.0277531 0.989707 0.140389
vn -0.0865398 -0.559198 -0.824505
vn 0.0818629 -0.93789 0.337135
vn 0.00182428 0.999994 -0.00294462
vn 0.00364854 0.999976 -0.00588921
vn 0.108407 -0.912347 0.394804
vn 0.0818442 0.937907 0.337094
vn 0.108371 0.912386 0.394725
vn -0.25387 0.217103 -0.942559
vn -0.736762 -0.676137 -0.00450156
vn -0.738346 -0.674395 -0.00611546
vn -0.735173 -0.677873 -0.00288763
vn 0 -0.999991 -0.00428376
vn -0.741986 0.670415 -0.000193777
vn -0.739043 0.673651 -0.00322954
vn -0.744908 0.667161 0.00284199
vn 0 -0.00513367 -0.999987
# 91 normals
usemtl Material__1
f 16/1/1 9/2/1 12/3/1
f 6/4/2 10/5/2 11/6/2
f 15/7/3 10/5/3 14/8/3
f 15/7/3 11/6/3 10/5/3
f 21/9/4 24/10/4 22/11/4
f 13/12/4 16/1/4 14/8/4
f 2/13/5 12/3/5 9/2/5
f 22/11/6 9/2/7 13/12/8
f 22/11/6 1/14/9 9/2/7
f 24/10/4 21/9/4 31/15/4
f 21/9/10 10/5/11 7/16/12
f 15/7/4 14/8/4 16/1/4
f 9/2/1 16/1/1 13/12/1
f 21/9/10 14/8/8 10/5/11
f 10/5/2 6/4/2 7/16/2
f 2/13/5 9/2/5 1/14/5
usemtl Material__2
f 59/17/13 52/18/13 48/19/13
f 59/17/13 58/20/13 52/18/13
f 59/17/13 57/21/13 58/20/13
f 57/21/13 55/22/13 51/23/13
f 57/21/13 59/17/13 55/22/13
f 51/23/13 55/22/13 45/24/13
usemtl Material__3
f 58/25/14 54/26/14 53/27/14
f 54/26/14 58/25/14 57/28/14
f 53/29/15 40/30/15 49/31/15
f 58/32/16 49/31/16 52/33/16
f 54/34/17 51/35/17 50/36/17
f 51/35/17 54/34/17 57/37/17
f 52/33/18 40/30/18 48/32/18
f 40/30/18 52/33/18 49/31/18
f 43/38/19 51/35/19 45/37/19
f 43/38/19 50/36/19 51/35/19
f 49/31/16 58/32/16 53/29/16
usemtl Material__4
f 43/39/20 54/40/20 50/41/20
f 53/42/21 43/39/21 40/43/21
f 43/39/21 53/42/21 54/40/21
usemtl Material__5
f 11/44/22 71/45/22 6/46/23
f 12/47/24 70/48/24 69/49/25
f 12/47/24 2/50/26 70/48/24
f 16/51/27 12/47/27 69/49/27
f 69/49/25 15/52/28 16/51/28
f 69/49/25 68/53/29 15/52/28
f 71/45/30 72/54/30 73/55/30
f 72/54/30 71/45/30 70/48/30
f 15/52/31 68/53/31 11/44/31
f 11/44/22 68/53/29 71/45/22
usemtl Material__6
f 38/56/32 67/57/33 65/58/32
f 42/43/14 66/58/14 67/57/33
f 65/58/34 36/59/35 20/60/36
f 38/56/32 65/58/32 7/61/37
f 65/58/34 20/60/36 7/61/38
f 66/58/14 42/43/14 46/62/14
f 65/58/34 44/62/35 36/59/35
usemtl Material__1
f 19/63/39 34/14/39 8/64/39
f 72/65/40 4/66/41 5/67/42
f 4/66/41 8/64/43 5/67/42
f 19/63/44 27/68/44 28/69/44
f 27/68/44 19/63/44 18/70/44
f 18/70/45 8/64/45 3/71/45
f 8/64/45 18/70/45 19/63/45
f 72/65/40 5/67/42 73/72/40
f 8/64/43 4/66/41 3/71/43
f 26/73/46 18/70/46 17/74/47
f 18/70/46 26/73/46 27/68/48
f 3/71/49 17/74/50 18/70/51
f 61/75/52 36/76/52 44/77/53
f 42/78/54 32/79/54 33/80/54
f 41/81/55 33/80/56 34/82/57
f 42/78/58 37/83/58 32/79/58
f 63/84/14 56/77/14 60/85/14
f 64/86/59 61/75/59 63/84/59
f 19/87/60 62/88/61 34/82/57
f 42/78/54 33/80/54 41/81/54
f 61/75/52 35/89/62 36/76/52
f 62/88/61 19/87/60 28/90/63
f 41/81/55 34/82/57 62/88/61
f 63/84/14 60/85/14 64/86/14
f 61/75/59 64/86/59 62/88/59
usemtl Material__7
f 37/91/64 67/92/65 38/93/64
f 67/92/65 42/94/66 41/33/67
f 42/94/66 67/92/65 37/91/64
usemtl Material__8
f 47/95/68 64/96/68 60/97/69
f 44/95/4 56/97/4 63/96/4
f 64/96/68 47/95/68 62/98/70
f 44/95/4 63/96/4 61/98/4
usemtl Material__1
f 1/99/71 4/100/72 2/101/73
f 1/99/71 3/102/71 4/100/72
f 5/100/74 39/103/14 6/101/75
f 3/102/49 23/104/76 17/105/50
f 3/102/49 1/99/9 23/104/76
f 4/100/72 70/106/77 2/101/73
f 30/107/78 36/108/78 35/109/79
f 4/100/72 72/110/80 70/106/77
f 5/100/74 71/106/81 73/110/82
f 5/100/74 6/101/75 71/106/81
f 39/103/14 5/100/74 8/102/14
f 7/99/12 20/104/83 21/111/10
f 1/99/9 22/111/6 23/104/76
f 22/111/84 25/107/84 23/104/85
f 36/108/78 30/107/78 20/104/14
f 22/111/84 24/112/86 25/107/84
f 25/107/87 17/105/87 23/104/87
f 17/105/87 25/107/87 26/113/87
f 20/104/88 30/107/89 31/112/88
f 20/104/88 31/112/88 21/111/90
usemtl Material__9
f 29/114/91 35/56/91 61/115/91
f 29/114/91 61/115/91 62/116/91
usemtl Material__10
f 26/117/13 28/118/13 27/119/13
f 25/120/13 28/118/13 26/117/13
f 31/121/13 25/120/13 24/122/13
f 30/123/13 25/120/13 31/121/13
f 25/120/13 29/124/13 28/118/13
f 25/120/13 30/123/13 29/124/13
