# 
# Wavefront OBJ file
# Converted by the 3D Exploration 1.5.30
# XDimension Software, LLC
# http://www.xdsoft.com/explorer/
# 
mtllib Prisonshipold.mtl
# object PrisonShipold
g PrisonShipold
v -347.606 -227.816 -795.064
v -291.524 -265.369 -795.064
v -291.524 -265.369 894.432
v -347.606 -223.608 870.474
v 257.487 -265.369 -795.064
v 338.705 -167.5 -795.064
v 338.705 -167.5 814.572
v 257.487 -265.369 814.572
v 257.487 265.233 814.572
v -291.524 265.233 894.432
v -347.606 223.608 870.474
v -291.524 265.233 -795.064
v -347.606 227.639 -795.064
v 338.705 167.363 -795.064
v 338.705 167.363 814.572
v -347.606 -95.855 -794.873
v -347.606 95.7183 -794.873
v -347.606 95.7183 870.474
v -347.606 -95.855 870.474
v -291.524 -62.6277 -830.544
v -291.524 62.5238 -830.544
v -291.524 62.5238 894.432
v -291.524 -62.6277 894.432
v 224.869 -221.287 -832.732
v 291.597 -145.152 -832.732
v 291.597 146.156 -832.732
v -231.266 223.608 -832.732
v -291.524 156.325 -832.732
v -291.524 -155.322 -832.732
v -231.266 -221.287 -832.732
v -291.524 -154.767 -982.278
v -230.7 -220.732 -982.278
v 225.435 -220.732 -982.278
v 292.163 -144.597 -982.278
v 292.163 146.711 -982.278
v 225.435 222.845 -982.278
v -230.7 223.608 -982.278
v -291.524 156.88 -982.278
v 46.2923 265.327 -383.376
v 163.678 265.327 -383.328
v 7.1524 265.233 -447.216
v 197.219 265.233 -447.216
v 258.467 265.233 -794.971
v 224.869 222.29 -832.732
v 197.219 265.233 -795.064
v -21.5972 222.845 -982.278
v -21.5972 223.608 -832.732
v 43.888 311.454 -754.677
v 166.872 311.454 -479.16
v 43.888 311.454 -479.16
v 7.1524 265.233 -622.908
v 43.888 311.454 -622.908
v -291.524 265.233 -622.908
v 166.872 311.454 -622.908
v 166.872 343.398 -622.908
v 43.888 343.398 -622.908
v 43.888 343.398 -726.726
v 166.872 343.398 -726.726
v 211.594 375.342 -621.311
v -2.4308 375.342 -621.311
v -2.4308 375.342 -726.726
v 211.594 375.342 -726.726
v 211.594 415.272 -621.311
v -2.4308 415.272 -621.311
v -2.4308 415.272 -726.726
v 211.594 415.272 -726.726
v 166.872 447.216 -621.311
v 43.888 447.216 -621.311
v 43.888 391.314 -726.726
v 43.888 447.216 -726.726
v 166.872 447.216 -726.726
v 166.872 391.314 -726.726
v 48.0131 375.342 -581.381
v 48.0131 415.272 -581.381
v 162.925 375.342 -581.381
v 162.925 415.272 -581.381
v 43.888 311.454 -982.733
v 169.701 311.454 -982.733
v 43.888 391.314 -902.873
v 169.088 391.314 -902.873
v -163.748 343.398 -726.726
v -163.748 343.398 -622.908
v 207.336 -180.802 -942.348
v 252.233 -129.576 -942.348
v 252.233 131.689 -942.348
v 207.311 182.943 -942.348
v -213.818 183.652 -942.348
v -255.435 140.707 -942.348
v -255.435 -138.46 -942.348
v -213.928 -180.802 -942.348
v 46.0096 -265.369 814.572
v 46.0096 265.233 814.572
v 46.0096 265.233 750.684
v -291.524 265.233 750.684
v 46.0096 -265.369 750.684
v -291.524 -265.369 750.684
v -4.028 289.492 750.684
v -251.594 289.492 750.684
v -4.028 223.608 982.278
v 43.888 223.608 894.432
v 126.931 223.608 894.432
v 238.735 223.608 894.432
v 298.775 152.953 894.432
v 298.775 -153.089 894.432
v -219.65 94.4678 982.278
v -219.65 -94.5717 982.278
v -219.65 -223.608 982.278
v -219.65 223.608 982.278
v 43.888 95.832 894.432
v -4.028 95.832 982.278
v 43.888 -95.832 894.432
v -4.028 -95.832 982.278
v -4.028 -223.608 982.278
v 126.41 -95.832 894.432
v 238.214 -151.734 894.432
v 238.214 151.743 894.432
v 126.41 95.8412 894.432
v -251.594 287.496 894.432
v -283.249 223.608 942.348
v -283.249 95.7183 942.348
v -4.028 287.496 894.432
v -251.594 -287.496 894.432
v -4.028 -287.496 894.432
v 126.931 -223.608 894.432
v 238.735 -223.608 894.432
v 43.888 -223.608 894.432
v -283.249 -95.7183 942.348
v -283.249 -223.608 942.348
v -4.028 -289.492 750.684
v -251.594 -289.492 750.684
v 238.214 0 894.432
v 43.888 0 894.432
v -219.65 0 982.278
v -291.524 -1.13488e-14 894.432
v 298.775 0 894.432
v -4.028 0 982.278
v 338.705 0 814.572
v 338.705 0 -795.064
v 292.163 0 -982.278
v 252.233 0 -942.348
v -291.524 -2.26976e-14 -982.278
v -255.435 0 -942.348
v -291.524 0 -830.544
v 291.597 0 -832.732
vt 0.0803571 0.703154
vt 0 0.617072
vt 0 0.703556
vt 0.25 0.703154
vt 0.357153 0.616669
vt 0.25 0.552835
vt 0.419653 0.703154
vt 0.142857 0.616669
vt 0.142857 0.552835
vt 0.319903 0.293382
vt 0.25 0.348979
vt 0.355618 0.348979
vt 0.25 0.293382
vt 0.17998 0.293382
vt 0.144266 0.348979
vt 0.25 0.75
vt 0.421005 0.75
vt 0.0788417 0.75
vt 0.25 0.515771
vt 0.142857 0.515771
vt 0.357143 0.515771
vt 0.357143 0.552835
vt 0.5 0.348979
vt 0.5 0.515771
vt 0 0.515771
vt 0 0.348979
vt 0.5 0.617072
vt 0.5 0.703556
vt 0.357016 0.299783
vt 0.5 0.299783
vt 0.357016 0.25
vt 0.142984 0.299783
vt 0 0.299783
vt 0.142831 0.25
vt 0 0.25
vt 0.5 0.25
vt 0.75 0.957449
vt 0.605777 1
vt 0.592201 0.957449
vt 0.539343 1
vt 0.5 0.957449
vt 0.592201 0.0997545
vt 0.75 0.0997545
vt 0.613777 0
vt 0.75 0.0796827
vt 0.613254 0.0796827
vt 0.5 0.0997545
vt 0.542052 0
vt 0.541529 0.0796827
vt 0.75 1
vt 0.75 0
vt 0.605831 1
vt 0.75 0.957447
vt 0.592249 0.957447
vt 0.75 0.0997567
vt 0.592249 0.0997567
vt 0.612238 0.079685
vt 0.611715 0
vt 0.539234 1
vt 0.5 0.957447
vt 0.540476 0.079685
vt 0.539953 0
vt 0.75 0.079685
vt 0.5 0.099806
vt 0.5 0.75
vt 0.534205 0.602768
vt 0.5 0.585974
vt 0.969086 0.592686
vt 1 0.75
vt 1 0.574604
vt 0.534205 0.75
vt 0.969086 0.75
vt 0.933435 0.544672
vt 0.572686 0.545464
vt 0.947897 0.5
vt 0.557161 0.500853
vt 0.534205 0.603243
vt 0.5 0.75
vt 0.5 0.58623
vt 1 0.75
vt 0.969086 0.593181
vt 1 0.574712
vt 0.969086 0.75
vt 0.534205 0.75
vt 0.933529 0.545225
vt 0.572665 0.545225
vt 0.557161 0.5
vt 0.829553 0.0796827
vt 1 0
vt 0.830162 0
vt 0.931274 0.0808488
vt 0.931274 1
vt 1 0.0808488
vt 1 1
vt 0.894811 0.099856
vt 0.894811 0.987237
vt 0.754618 0.987237
vt 0.931334 0.080851
vt 0.828319 0.079685
vt 0.931334 1
vt 0.827709 0
vt 1 0.080851
vt 0.894879 0.0998581
vt 0.894879 0.987234
vt 0.754427 0.987234
vt 0.175274 0.957447
vt 0.216554 1
vt 0.216554 0.923404
vt 0.175274 0.923404
vt 0.108515 1
vt 0.177024 1
vt 0.000808618 0.957447
vt 0.0162788 1
vt 0.000808567 0.0997567
vt 0.404022 0.079685
vt 0.0277179 0.079685
vt 0.453733 0.0997567
vt 0.453733 0.923404
vt 0.5 0.0997567
vt 0.20733 0.285106
vt 0.453733 0.191489
vt 0.453733 0.079685
vt 0.0505285 0.285106
vt 0 0.099806
vt 0.0781994 0.319149
vt 0.175041 0.319123
vt 0.231048 0.079685
vt 0.403555 0
vt 0.231048 0
vt 0.453733 0
vt 0.420791 0.923404
vt 0.420791 1
vt 0.453733 1
vt 0.0272509 0
vt 0.0505285 0.0997567
vt 0.5 0.987234
vt 1 0.373661
vt 0.728472 0.25676
vt 0.728472 0.373661
vt 0.555681 0.25676
vt 0.5 0.24331
vt 0.555681 0.24324
vt 0.865178 0.25
vt 0.637986 0.151786
vt 0.898836 0.151786
vt 0.637986 0.25
vt 0.500549 0.151786
vt 0.587499 0.151786
vt 0.5 0.151786
vt 0.932189 0.205357
vt 0.940908 0.151786
vt 1 0.125
vt 0.604478 0.634615
vt 0.5 0.673077
vt 0.604478 0.75
vt 1 0.673077
vt 0.891791 0.634615
vt 0.891791 0.75
vt 1 0.576923
vt 0.604478 0.5
vt 0.5 0.576923
vt 0.891791 0.5
vt 0.889029 0.125
vt 0.644262 0.05
vt 0.683102 0
vt 0.5 0
vt 0.644262 0.125
vt 0.5 0.05
vt 0.866768 0.816272
vt 0.572898 0.940734
vt 0.866768 0.942976
vt 1 0.816272
vt 0.999241 1
vt 1 0.943597
vt 0.686907 0.971445
vt 0.749751 0.75
vt 0.61953 0.816272
vt 0.572898 0.816272
vt 0.749751 0.999427
vt 0.399696 0.940734
vt 0.159879 0.816272
vt 0.159879 0.940734
vt 0.399696 0.816272
vt 0.399696 0.779095
vt 0.106586 0.779095
vt 0.106586 0.971445
vt 5.09131e-08 0.937501
vt 8.00354e-05 0.818705
vt 0.999241 0.75
vt 0 0.0930008
vt 0 0.126304
vt 0.309524 0.126304
vt 0.097619 0
vt 0.410174 0
vt 0.5 0.0448812
vt 0.309524 0.25
vt 0.137363 0.356343
vt 0.5 0.643657
vt 0.5 0.356343
vt 0.137363 0.643657
vt 0.5 0.5
vt 0.867456 0.25
vt 0.612807 0.25
vt 1 0.5
vt 0 0.635681
vt 0.142857 0.644862
vt 0.137363 0.748866
vt 0.5 0.644862
vt 0.5 0.748866
vt 0.137363 0.644862
vt 0.137363 0.358852
vt 0.5 0.251134
vt 0.137363 0.251134
vt 0.5 0.358852
vt 0.142857 0.358852
vt 0.0116589 0.076923
vt 0.363208 0
vt 0.351025 0.076923
vt 0 0
vt 0.0116589 0.173077
vt 0.363208 0.25
vt 0.351025 0.173077
vt 0.5 0.173077
vt 0.5 0.076923
vt 0 0.75
vt 0.268293 0.852168
vt 0 0.852168
vt 0.268293 0.75
vt 0.348432 1
vt 0.721254 0.75
vt 1 1
# 231 texture verticies
vn 0 0 1
vn 0.193107 0.000787124 0.981177
vn 0.193396 -0.000393639 0.981121
vn 0.193396 0.00039361 0.981121
vn -0.773957 0 0.633238
vn -0.351272 0 0.936274
vn 0.877895 0 0.478852
vn 0.877895 0 0.478852
vn 0.739329 0 0.673344
vn 0.791492 0 0.61118
vn -0.276663 0 0.960967
vn 0.386793 -0.000787278 0.922166
vn 0.232838 0.000473885 0.972515
vn -0.367197 0 0.930143
vn 0.193107 -0.00078718 0.981177
vn -0.608095 0 0.793864
vn -0.611146 0.332654 0.718221
vn -0.744986 0 0.66708
vn -0.588221 -0.613657 0.526708
vn -0.484342 -0.677784 0.553192
vn -0.679804 0 0.733394
vn -0.71665 -0.273174 0.641707
vn -0.371214 0.732845 0.570209
vn -0.483696 0.678904 0.552384
vn -0.588497 0.614182 0.525787
vn -0.372905 -0.731335 0.571044
vn -0.716501 0.27388 0.641573
vn 0.964952 0 0.262426
vn 0.894427 0 0.447214
vn 0.973249 0 0.229753
vn 0.746653 -0.623396 0.232135
vn 0.682972 -0.574119 0.451594
vn 0.747905 -0.620659 0.235417
vn 1 0 -9.47965e-08
vn 0.681655 -0.58037 0.445553
vn 0.999993 0 0.00378565
vn 0.999993 0 0.00378565
vn 0.579036 -0.134768 -0.804086
vn 0.624517 0 -0.781011
vn 0.517226 -0.260091 -0.815371
vn 0.769533 -0.638607 -2.91796e-08
vn 0.752035 -0.659123 0.000400964
vn 0.752035 -0.659123 0.000401031
vn 0.752035 -0.659123 0.000400897
vn 0.308248 -0.48653 -0.817479
vn 0.15296 -0.574139 -0.804343
vn 0.769533 -0.638607 -7.29491e-08
vn 0.988273 0 0.152697
vn 0.580614 0.13609 -0.802725
vn 0.519625 0.260892 -0.813587
vn 0.683373 0.573896 0.451271
vn 0.747786 0.622059 0.232075
vn 0.74794 0.620689 0.235224
vn 0.752024 0.659114 0.00529279
vn 0.752024 0.659114 0.00529289
vn 0.752024 0.659114 0.00529269
vn 0.771432 0.636311 0.000234276
vn 0.773326 0.634009 -7.33086e-08
vn 0.311369 0.491327 -0.813417
vn 0.232677 0.533188 -0.81337
vn 0.68216 0.579677 0.445681
vn -0.707106 0 -0.707108
vn -0.667306 -0.159822 -0.727434
vn -0.60718 -0.319645 -0.727433
vn 0.693833 -0.175882 -0.698327
vn 0.741891 0 -0.670521
vn 0.618312 -0.340911 -0.708145
vn 0 0 -1
vn 0.181351 -0.655745 -0.732878
vn -0.278565 -0.613197 -0.739183
vn 0.363519 -0.586888 -0.723475
vn -0.278563 -0.613187 -0.739192
vn -0.667306 0.159822 -0.727433
vn -0.60718 0.319645 -0.727433
vn 0.693141 0.176979 -0.698738
vn 0.616611 0.343113 -0.708565
vn 0.181087 0.656341 -0.732409
vn 0.361674 0.588528 -0.723068
vn -0.277993 0.613302 -0.73931
vn -1 0 0
vn -0.470662 -0.0809444 -0.878593
vn -0.551809 0.0104938 -0.833905
vn -0.544898 0.0197895 -0.838269
vn -0.377556 -0.222397 -0.898883
vn -0.509725 0.860337 0
vn -0.472177 0.0808231 -0.877791
vn -0.551749 -0.0103781 -0.833946
vn -0.381479 0.225283 -0.896505
vn -0.544795 -0.0195577 -0.838341
vn -0.509353 -0.860558 0
vn 0.291308 -0.929334 0.226886
vn 0.319893 -0.942466 0.0970846
vn 0.291438 -0.956547 0.00902274
vn 0.292876 0.956108 0.00902026
vn 0.292075 0.929238 0.226293
vn 0.111174 0.993801 0
vn 0.320516 0.942279 0.0968458
vn 0 -0.886151 0.463396
vn 0 -0.971121 0.238588
vn 0 0.886774 0.462203
vn 0 0.886774 0.462203
vn -0.000125859 0.992994 0.118169
vn -0.140595 -0.501306 -0.853771
vn -0.134134 -0.531392 -0.836439
vn 0 -1 0
vn -0.259339 -0.965781 0.00307731
vn -0.401315 -0.91594 0.000730374
vn 0.110645 -0.99386 0
vn -0.269427 0.401931 -0.875135
vn -0.280205 0.331497 -0.900886
vn -0.260576 0.965449 0.0030737
vn -0.000890767 1 0.000176725
vn 0 1 0
vn 0.00128891 0.999999 -6.15633e-05
vn 0.0012889 0.999999 -2.2189e-05
vn -0.00178155 0.999998 0.000392825
vn 0.00182429 0.999995 -0.00255082
vn 0.00364855 0.99998 -0.00510162
vn -0.736747 -0.676157 -0.00390662
vn -0.738315 -0.674435 -0.00529763
vn 0.758798 0.569099 0.316783
vn -0.735174 -0.677874 -0.00251558
vn 0 -0.999993 -0.00371086
vn -0.178151 -0.983908 0.0136651
vn -0.34442 -0.938774 0.00886154
vn -0.542188 -0.840257 0
vn -0.178944 0.983764 0.0136631
vn -0.346048 0.938175 0.00885803
vn -0.542627 0.839974 0
vn 0.758564 -0.568923 0.317659
vn -0.741994 0.670407 -0.000160935
vn -0.744925 0.667144 0.00247576
vn -0.739044 0.673652 -0.00279763
vn 0.00113591 0.65985 -0.751397
vn -0.576561 0.817054 0.0010054
vn -0.576996 -0.816746 0.0010501
vn -0.556385 -0.830922 0.00209955
vn -0.556804 0.830641 0.00201022
vn -0.359843 0.933013 0
vn -0.134518 0.777479 0.614355
vn 0 0.808736 0.588172
vn -0.260934 0.728907 0.632936
vn 0.000111591 -1 6.08676e-05
vn -0.471122 -0.626804 0.620613
vn -0.260121 -0.72882 0.633371
vn -0.134518 -0.777479 0.614355
vn -0.508803 0.604469 0.612973
vn 0.733232 -0.549923 0.399945
vn -0.508044 -0.60395 0.614114
vn 0 -0.808736 0.588172
vn 0.733232 0.549923 0.399945
vn 0.999925 -0.00192888 0.0120552
vn 0.999953 0.00542143 0.007993
vn 0.959381 0.281983 0.0085909
vn 0.939023 0.343841 0.00301719
vn 1 0 0
vn 0.999921 0 0.0125799
vn 0 0.707107 -0.707107
vn 0.844646 0.535291 0.00610442
vn 0.843114 0.537715 0.00471733
vn -0.802984 0.595999 -0.00151606
vn -0.801746 0.597665 0
vn 0.842841 0.538138 0.00518758
vn -4.54412e-05 0.974939 0.222474
vn 0 0.97495 0.222425
vn -0.733747 0.66819 0.12303
vn -0.782861 0.622197 0
vn -0.703059 0.686641 0.18502
vn 0.791191 0.600283 0.116949
vn 0.762759 0.622317 0.175842
vn 0.657799 0.669866 0.344355
vn -8.86048e-05 0.901011 0.433797
vn -0.00017721 0.900967 0.433887
vn -0.591792 0.720356 0.361759
vn -0.804216 0.594329 -0.0030321
vn -0.00150945 0.66248 -0.749078
vn 0.000699292 0.663173 -0.748465
vn -0.00371818 0.663878 -0.747831
vn 0 0.658505 -0.752576
vn 0.000699296 0.661076 -0.750319
vn -0.271068 0.96256 0
vn -0.0074363 0.665037 -0.746773
vn -0.521839 0.853044 0
vn -0.29731 0.954781 0
vn 0 -0.00513367 -0.999987
vn 0.159222 -0.775139 0.611398
vn 0.440682 -0.839223 0.318597
vn 0.547978 -0.782015 0.296939
vn 0.634281 0 0.773103
vn 0.581238 0.813734 0
vn -0.567733 0.823213 0
vn 0.581239 -0.813733 0
vn -0.345962 -0.853257 0.390208
vn -0.567733 -0.823213 0
vn -0.534645 -0.790211 0.299537
vn 0.244615 0.745206 0.620348
vn 0.1625 0.762591 0.626138
vn 0.474278 0.66399 0.578081
vn -0.157815 0.763067 0.626756
vn -0.237512 0.746408 0.621662
vn -0.232632 -0.759574 0.607396
vn -0.620658 0 0.784081
vn -0.461342 0.668946 0.582816
# 203 normals
usemtl Material__1
f 115/1/1 124/2/2 125/3/1
f 131/4/1 117/5/3 132/6/1
f 131/4/1 116/7/1 117/5/3
f 131/4/1 114/8/4 115/1/1
f 132/6/1 114/8/4 131/4/1
f 114/8/4 132/6/1 111/9/1
f 22/10/5 133/11/5 105/12/6
f 133/11/5 22/10/5 134/13/5
f 133/11/5 23/14/5 106/15/6
f 133/11/5 134/13/5 23/14/5
f 116/7/1 135/16/1 103/17/1
f 135/16/1 116/7/1 131/4/1
f 135/16/1 115/1/1 104/18/1
f 135/16/1 131/4/1 115/1/1
f 111/9/7 136/19/8 112/20/9
f 136/19/8 111/9/7 132/6/8
f 110/21/10 132/6/8 109/22/7
f 132/6/8 110/21/10 136/19/8
f 108/23/11 136/19/1 99/24/12
f 136/19/1 105/12/6 133/11/1
f 136/19/1 108/23/11 105/12/6
f 133/11/1 113/25/13 136/19/1
f 113/25/13 106/15/6 107/26/14
f 113/25/13 133/11/1 106/15/6
f 115/1/1 125/3/1 104/18/1
f 101/27/15 116/7/1 102/28/1
f 99/24/12 117/5/3 101/27/15
f 99/24/12 110/21/10 117/5/3
f 108/23/11 120/29/16 105/12/6
f 120/29/16 108/23/11 119/30/17
f 119/30/17 18/31/18 120/29/16
f 18/31/19 22/10/20 120/29/20
f 116/7/1 103/17/1 102/28/1
f 124/2/2 115/1/1 114/8/4
f 113/25/13 114/8/4 112/20/9
f 127/32/16 107/26/14 106/15/6
f 107/26/14 127/32/16 128/33/21
f 128/33/21 19/34/18 4/35/22
f 19/34/18 128/33/21 127/32/16
f 106/15/23 23/14/24 127/32/24
f 19/34/25 127/32/24 23/14/24
f 132/6/1 117/5/3 109/22/1
f 113/25/13 124/2/2 114/8/4
f 105/12/26 120/29/20 22/10/20
f 116/7/1 101/27/15 117/5/3
f 18/31/18 119/30/17 11/36/27
usemtl Material__2
f 137/37/28 104/38/29 7/39/30
f 7/39/31 125/40/32 8/41/33
f 137/37/28 6/42/34 138/43/34
f 125/40/32 7/39/31 104/38/35
f 34/44/36 144/45/37 25/46/36
f 25/46/38 138/43/39 6/42/40
f 138/43/39 25/46/38 144/45/39
f 5/47/41 7/39/31 8/41/33
f 33/48/42 25/46/42 24/49/43
f 137/37/28 135/50/29 104/38/29
f 144/45/37 34/44/36 139/51/37
f 25/46/42 33/48/42 34/44/44
f 6/42/34 137/37/28 7/39/30
f 24/49/45 6/42/40 5/47/46
f 6/42/40 24/49/45 25/46/38
f 7/39/31 5/47/41 6/42/47
f 103/52/29 137/53/28 15/54/48
f 15/54/48 138/55/34 14/56/34
f 26/57/36 139/51/37 35/58/36
f 138/55/39 26/57/49 14/56/50
f 102/59/51 15/54/52 9/60/53
f 35/58/54 44/61/54 26/57/55
f 44/61/54 35/58/54 36/62/56
f 137/53/28 103/52/29 135/50/29
f 138/55/34 15/54/48 137/53/28
f 139/51/37 26/57/36 144/63/37
f 15/54/52 43/64/57 9/60/53
f 15/54/52 14/56/58 43/64/57
f 14/56/50 44/61/59 43/64/60
f 14/56/50 26/57/49 44/61/59
f 138/55/39 144/63/39 26/57/49
f 15/54/52 102/59/51 103/52/61
usemtl Material__1
f 139/65/62 85/66/63 35/67/64
f 88/68/65 141/69/66 38/70/67
f 88/68/68 140/71/68 142/72/68
f 140/71/68 87/73/68 86/74/68
f 140/71/68 88/68/68 87/73/68
f 37/75/69 86/74/70 87/73/71
f 87/73/71 38/70/67 37/75/69
f 38/70/67 87/73/71 88/68/65
f 141/69/66 88/68/65 142/72/66
f 140/71/68 86/74/68 85/66/68
f 35/67/64 86/74/70 36/76/72
f 86/74/70 37/75/69 36/76/72
f 139/65/62 140/71/62 85/66/63
f 35/67/64 85/66/63 86/74/70
f 84/77/73 139/78/62 34/79/74
f 141/80/66 89/81/75 31/82/76
f 141/80/66 142/83/66 89/81/75
f 140/84/68 89/81/68 142/83/68
f 140/84/68 90/85/68 89/81/68
f 90/85/68 140/84/68 83/86/68
f 32/75/77 90/85/78 83/86/79
f 34/79/74 83/86/79 84/77/73
f 31/82/76 90/85/78 32/75/77
f 31/82/76 89/81/75 90/85/78
f 139/78/62 84/77/73 140/84/62
f 83/86/68 140/84/68 84/77/68
f 32/75/77 83/86/79 33/87/79
f 83/86/79 34/79/74 33/87/79
usemtl Material__2
f 29/88/80 141/89/80 31/90/80
f 141/89/80 29/88/80 20/91/80
f 23/92/80 143/93/80 20/91/80
f 143/93/80 23/92/80 134/94/80
f 141/89/80 20/91/80 143/93/80
f 29/88/81 16/95/82 20/91/83
f 29/88/81 1/43/84 16/95/82
f 16/95/85 23/92/85 20/91/85
f 16/95/85 19/96/85 23/92/85
f 4/97/80 16/95/80 1/43/80
f 4/97/80 19/96/80 16/95/80
f 141/89/80 21/98/80 28/99/80
f 21/98/80 134/94/80 22/100/80
f 141/89/80 28/99/80 38/101/80
f 134/94/80 21/98/80 143/102/80
f 28/99/86 17/103/87 13/55/88
f 28/99/86 21/98/89 17/103/87
f 141/89/80 143/102/80 21/98/80
f 17/103/90 22/100/90 18/104/90
f 17/103/90 21/98/90 22/100/90
f 17/103/80 11/105/80 13/55/80
f 11/105/80 17/103/80 18/104/80
f 91/106/91 123/107/92 129/108/93
f 97/108/94 92/106/95 93/109/96
f 92/106/95 97/108/94 121/107/97
f 91/106/91 124/110/98 126/111/98
f 124/110/98 91/106/91 8/112/99
f 101/110/100 92/106/95 100/111/101
f 101/110/100 9/112/102 92/106/95
f 9/112/102 101/110/100 102/113/101
f 5/114/46 30/115/103 24/116/45
f 5/114/46 2/117/104 30/115/103
f 5/114/105 96/118/106 2/117/107
f 5/114/105 95/109/108 96/118/106
f 95/109/108 8/112/99 91/106/91
f 95/109/108 5/114/105 8/112/99
f 13/119/88 12/117/109 27/115/110
f 94/118/111 41/120/112 53/121/113
f 9/112/102 93/109/96 92/106/95
f 13/119/88 27/115/110 28/122/86
f 93/109/96 41/120/112 94/118/111
f 9/112/102 41/120/112 93/109/96
f 42/123/114 9/112/102 43/124/113
f 40/125/115 9/112/102 42/123/114
f 9/112/102 39/126/116 41/120/112
f 39/126/116 9/112/102 40/125/115
f 47/127/117 37/128/117 27/115/113
f 37/128/117 47/127/117 46/129/118
f 29/122/119 32/128/119 30/115/120
f 92/106/95 121/107/97 100/111/121
f 29/122/119 31/130/122 32/128/119
f 32/128/123 24/116/123 30/115/123
f 130/131/124 123/107/92 122/132/125
f 96/118/106 122/132/125 3/133/126
f 122/132/125 96/118/106 130/131/124
f 129/108/68 96/118/68 95/109/68
f 129/108/68 130/131/68 96/118/68
f 98/131/127 121/107/97 97/108/94
f 121/107/97 98/131/127 118/132/128
f 118/132/128 94/118/111 10/133/129
f 94/118/111 118/132/128 98/131/127
f 97/108/68 94/118/68 98/131/68
f 97/108/68 93/109/68 94/118/68
f 91/106/91 129/108/93 95/109/108
f 124/110/98 8/112/99 125/113/98
f 1/119/84 30/115/103 2/117/104
f 123/107/92 91/106/91 126/111/130
f 123/107/92 130/131/124 129/108/93
f 24/116/123 32/128/123 33/134/123
f 27/115/131 38/130/131 28/122/132
f 27/115/131 37/128/133 38/130/131
f 44/116/59 45/135/134 43/124/60
f 1/119/84 29/122/81 30/115/103
f 12/117/135 11/136/135 10/133/129
f 4/136/136 2/117/107 3/133/126
f 2/117/107 4/136/136 1/119/137
f 11/136/135 12/117/135 13/119/138
usemtl Material__1
f 53/137/139 41/138/113 51/139/113
f 42/140/113 43/141/113 45/142/113
f 108/143/140 121/144/141 118/145/142
f 121/144/141 108/143/140 99/146/141
f 117/147/143 110/146/143 109/148/143
f 100/148/113 99/146/113 101/149/113
f 128/150/144 122/145/145 107/143/146
f 118/145/142 119/150/17 108/143/140
f 119/150/17 118/145/142 10/151/147
f 126/148/148 113/146/148 123/144/148
f 3/151/149 128/150/144 4/152/22
f 123/144/150 107/143/146 122/145/145
f 107/143/146 123/144/150 113/146/150
f 114/147/113 111/148/113 112/146/113
f 119/150/17 10/151/147 11/152/27
f 122/145/145 128/150/144 3/151/149
f 100/148/151 121/144/151 99/146/151
f 126/148/105 124/149/105 113/146/105
usemtl Material__3
f 72/153/68 62/154/68 58/155/68
f 61/156/68 69/157/68 57/158/68
f 65/159/68 69/157/68 61/156/68
f 72/153/68 71/160/68 66/161/68
f 72/153/68 70/162/68 71/160/68
f 70/162/68 69/157/68 65/159/68
f 70/162/68 72/153/68 69/157/68
f 72/153/68 66/161/68 62/154/68
usemtl Material__1
f 80/163/152 58/164/153 78/89/154
f 48/165/80 79/163/80 77/89/80
f 58/164/153 54/166/155 78/89/154
f 48/165/80 69/167/80 79/163/80
f 54/166/155 58/164/153 55/168/156
f 58/164/153 80/163/152 72/167/157
f 79/169/113 72/170/113 80/171/113
f 80/171/158 77/172/158 79/169/158
f 36/173/159 78/174/154 45/175/160
f 77/172/161 47/176/161 48/177/162
f 79/169/113 69/178/113 72/170/113
f 77/172/158 80/171/158 78/174/158
f 36/173/159 45/175/160 44/179/163
f 54/180/113 50/181/164 49/182/165
f 50/181/164 54/180/113 52/183/113
f 50/181/166 51/184/167 41/185/168
f 50/181/166 52/183/167 51/184/167
f 42/186/169 54/180/155 49/182/170
f 45/175/160 54/180/155 42/186/169
f 54/180/155 45/175/160 78/174/154
f 42/186/169 49/182/170 40/187/171
f 40/187/172 50/181/164 39/188/173
f 40/187/172 49/182/165 50/181/164
f 39/188/174 50/181/166 41/185/168
f 77/172/161 46/189/175 47/176/161
f 48/190/80 57/191/80 69/191/80
f 81/192/176 47/193/177 27/194/178
f 81/192/176 57/191/179 48/190/180
f 81/192/181 56/35/113 57/191/113
f 81/192/176 27/194/178 12/195/182
f 53/36/139 81/192/181 12/195/183
f 53/36/139 82/196/181 81/192/181
f 81/192/176 48/190/180 47/193/177
f 56/35/113 81/192/181 82/196/181
usemtl Material__3
f 68/197/184 71/198/113 70/199/184
f 71/198/113 68/197/184 67/200/113
f 36/201/185 77/202/185 78/203/185
f 36/201/185 46/204/185 77/202/185
f 75/205/186 55/206/187 59/207/188
f 63/207/189 75/205/189 59/207/189
f 75/205/189 63/207/189 76/205/189
f 71/208/190 63/207/190 66/209/190
f 63/207/190 71/208/190 67/210/190
f 68/211/184 65/212/191 64/213/191
f 65/212/191 68/211/184 70/214/184
f 66/209/156 59/207/156 62/209/156
f 59/207/156 66/209/156 63/207/156
f 64/213/80 61/212/80 60/213/80
f 61/212/80 64/213/80 65/212/80
f 62/209/192 55/206/187 58/208/192
f 55/206/187 62/209/192 59/207/188
f 56/215/193 61/212/194 57/214/194
f 56/215/193 60/213/195 61/212/194
f 67/210/196 76/205/197 63/207/198
f 76/216/197 68/217/199 74/218/200
f 76/216/197 67/219/196 68/217/199
f 75/220/186 56/221/193 55/35/187
f 56/221/193 73/222/201 60/223/195
f 56/221/193 75/220/186 73/222/201
f 73/222/1 76/216/1 74/218/1
f 76/216/1 73/222/1 75/220/1
f 60/223/202 74/218/202 64/224/202
f 74/218/202 60/223/202 73/222/202
f 74/218/200 68/217/199 64/224/203
f 55/225/1 52/226/1 54/227/1
f 52/226/1 55/225/1 56/228/1
f 51/229/1 82/230/1 53/231/1
f 51/229/1 56/228/1 82/230/1
f 51/229/1 52/226/1 56/228/1
