# 
# Wavefront OBJ file
# Converted by the 3D Exploration 1.5.30
# XDimension Software, LLC
# http://www.xdsoft.com/explorer/
# 
mtllib Shipwreck.mtl
# object ShipWreck
g ShipWreck
v 394.405 -140.05 708.112
v 394.405 140.433 708.112
v -266.87 219.623 708.112
v -254.802 -203.778 707.476
v -211.816 -157.481 594.493
v 310.309 -99.6735 594.493
v 309.537 97.0682 594.493
v -213.024 150.354 594.493
v 184.568 66.7199 1216.1
v 184.568 -66.7199 1216.1
v -175 -111.786 1265.35
v -175 111.786 1265.35
v -285.976 -274.289 717.024
v 540.619 -175.302 717.024
v 540.619 175.302 717.024
v -331.264 -134.2 717.024
v 311.82 279.841 275.838
v -68.4836 358.938 275.838
v -289.66 297.524 270.338
v -344.129 130.449 270.338
v -68.4836 -358.938 270.338
v 311.82 -279.841 270.338
v 605.164 -173.925 -1262.66
v 605.164 173.925 -1062.66
v 317.097 286.902 -172.662
v 56.6364 357.152 -172.662
v 317.097 -286.902 -885
v -179.072 329.843 270.338
v -75.0632 347.987 494.588
v -181.101 319.424 494.588
v -179.072 -329.843 270.338
v -287.138 -287.884 494.588
v -181.101 -319.424 494.588
v -338.955 -128.281 533.588
v 457.299 225.103 -61.162
v 314.459 -283.376 -61.162
v 418.638 244.241 -1062.66
v 313.14 -281.61 104.588
v 362.688 -260.577 104.588
v 528.72 -197.899 -61.162
v 530.934 -199.048 -756.912
v 315.778 -285.14 -756.912
v 425.122 -242.066 -1262.66
v 424.239 -241.348 -885
v 361.798 -259.719 187.463
v 312.48 -280.726 187.463
v -337.661 24.7447 609.15
v -337.661 63.87 609.15
v 121.668 -318.19 270.338
v 305.203 -275.999 382.463
v 116.715 -313.564 382.463
v 216.744 298.716 275.838
v 315.778 285.14 -60.537
v 220.673 304.29 -60.537
v 169.206 308.378 275.838
v 173.12 314.092 -60.537
v 54.2381 339.258 -60.537
v 605.164 80.4436 -1062.66
v 605.55 11.7192 -1019.6
v 601.396 11.2328 -739.037
v 601.396 79.3492 -739.037
v 605.55 -173.438 -1019.6
v 301.439 -256.434 380.716
v -357.831 -127.134 617.982
v -310.342 -280.533 605.257
v -217.654 362.094 116.1
v -431.294 299.951 173.344
v -483.907 131.494 187.442
v 149.691 -282.681 17.6699
v -328.789 370.747 -318.443
v -546.755 307.179 -260.039
v -546.755 -307.179 -260.039
v 58.1195 -289.819 -344.469
v -324.474 -332.634 144.722
v -370.818 -290.234 389.301
v -268.394 -322.125 361.856
v -420.869 -129.311 402.712
v -420.869 130 402.712
v -57.2929 -312.396 -313.544
v -22.1791 -306.869 -168.438
v -489.024 -303.565 -43.3473
v -217.158 -197.092 575
v 435.499 -124.832 575
v 434.534 121.095 575
v -218.668 187.702 575
v 471.132 -105.608 -545.725
v 470.196 132.954 -546.908
v -226.675 214.041 -193.995
v -269.223 96.6633 -193.206
v -50.2353 -245.779 -192.552
v -56.685 -242.765 228.442
v 454.186 -119.781 225.377
v 347.683 -154.163 226.059
v 470.664 13.6731 -546.317
v -268.864 5.15145 -192.752
v -261.658 91.3163 227.762
v -235.905 -174.136 -192.018
v -223.082 -202.658 18.552
v -233.491 -174.581 18.462
v 14.2822 -228.011 438.517
v 174.809 -203.263 -193.844
v 294.431 -171.353 226.401
v 400.934 -136.972 225.718
v 354.598 -152.145 15.5275
v 461.772 -110.314 -310.17
v 409.146 -133.809 15.1741
v 305.668 -169.609 -194.64
v -183.059 224.986 -194.259
v -181.67 209.753 226.788
v -99.6125 230.832 226.29
v -101.505 222.809 436.827
v -180.676 -213.061 18.4
v -99.7246 -231.24 439.08
v -93.936 -235.183 -192.395
v -95.8656 -233.868 18.0967
v 453.948 -59.2165 225.076
v 470.43 73.3137 -546.612
v 461.064 44.9942 -211.064
v 461.536 -50.211 -310.468
v 288.497 185.072 -550.284
v 287.45 188.924 -635.797
v 162.613 209.24 -199.828
v 13.4723 235.159 -199.241
v 12.5231 220.493 436.292
v 165.298 220.119 -635.366
v -261.476 44.9025 227.992
v -237.312 184.697 -193.798
vt 1 0.836398
vt 0.00559485 0
vt 0 1
vt 1 0.109345
vt 0.5 0.0625
vt 0 0.113263
vt 0.498846 0.125
vt 0.00073735 0.0733186
vt 1 1.24332
vt 0 -0.5
vt 0 1.5
vt 0.00559485 -0.463501
vt 1 1.24565
vt 1 -0.333491
vt 1 -0.337143
vt 0 0
vt 1 0.845391
vt 1 0.143952
vt 0.019482 0.903848
vt 0.2169 0.796376
vt 0.2169 0.98517
vt 0 0.821723
vt 0.426377 0.944327
vt 0.45916 0.933214
vt 0.426377 0.933063
vt 0.45916 0.944531
vt 0.524725 0.933515
vt 0.56716 0.856627
vt 0.493542 0.895882
vt 0.443284 0.787583
vt 0.349241 0.88835
vt 0.349241 0.931401
vt 0.304888 0.82033
vt 0.304888 0.796111
vt 0.393594 0.846051
vt 0.393594 0.820793
vt 0.346536 0.776998
vt 0.517678 0.75
vt 0.393594 0.889482
vt 0.850609 0.958589
vt 0.799941 0.982958
vt 0.799941 0.933816
vt 0.903852 1
vt 1 0.958791
vt 1 0.999912
vt 0.393594 0.932912
vt 0.524725 0.982452
vt 0.349932 0.930541
vt 0.2169 0.786032
vt 0.636792 0.874967
vt 0.624559 0.848607
vt 0.357393 0.800392
vt 0.850609 0.934118
vt 0.706644 0.464254
vt 0.857943 0.375735
vt 0.56552 0.41119
vt 1 0.375
vt 0.430184 0.450495
vt 0.359466 0.410195
vt 0 0.460245
vt 0.430184 0.442535
vt 1 0.5
vt 0.6523 0.498036
vt 0.479721 0.411399
vt 0.6523 0.464042
vt 0.715886 0.498529
vt 0 0.414755
vt 0.432737 0.380421
vt 0.424395 0.411633
vt 0.574311 0.378448
vt 0.56552 0.46395
vt 0.493661 0.571424
vt 0.68032 0.547305
vt 0.655232 0.5
vt 0.235534 0.735992
vt 0.569804 0.717909
vt 0.425045 0.686336
vt 0.425045 0.665702
vt 0.331081 0.602371
vt 0.425045 0.655384
vt 0.425045 0.603799
vt 0.0211557 0.658718
vt 0 0.580682
vt 0.331081 0.579358
vt 0.427408 0.555797
vt 1 0.75
vt 1 0.709518
vt 0.569536 0.656234
vt 0.617699 0.687481
vt 0.617699 0.630953
vt 0.569536 0.666554
vt 0.569536 0.630433
vt 0.469072 0.525058
vt 0.427408 0.579798
vt 0.569536 0.687195
vt 0.219011 0.25
vt 0 0.336287
vt 0 0.288713
vt 0.857982 0.316505
vt 0.981102 0.250664
vt 0.981102 0.316678
vt 0.219011 0.375
vt 0.857982 0.34079
vt 1 0.374509
vt 1 0.34118
vt 0.550394 0.125
vt 0.75 0.0625
vt 0.699606 0.125
vt 0.498714 0.133556
vt 0.225624 0.199262
vt 0.499192 0.187338
vt 0.225774 0.213185
vt 0.499872 0.241197
vt 0.499487 0.214789
vt 0.5 0.25
vt 0 0.242099
vt 0.361802 0.125
vt 0.361861 0.133422
vt 0 0.12667
vt 0 0.00874645
vt 0.177334 0.350473
vt 0 0.972408
vt 0.722998 0
vt 0.176602 0.18214
vt 0.997287 0.255212
vt 0.72359 0.187837
vt 0.997084 0.190687
vt 0.450286 0.245689
vt 0.723195 0.0626126
vt 0.452938 0.764119
vt 0.453382 0.842746
vt 0.454269 1
vt 0.998966 0.587494
vt 1 0.780711
vt 0.727387 0.933498
vt 0.726928 0.852956
vt 0.453825 0.921373
vt 0.639932 0.558622
vt 0.929374 0.739264
vt 0.999644 0.562476
vt 0.926587 1
vt 0 0.948825
vt 0.11456 0.343246
vt 0.639448 0.344608
vt 0 0.0114912
vt 0.114117 0.179617
vt 0.635115 0
vt 0.287589 0.0645822
vt 0.635333 0.0625886
vt 1 0.737762
vt 0.288001 0.182333
vt 0.999736 0.192161
vt 0.894493 0.13204
vt 0.999473 0.134321
vt 0.655816 0.127449
vt 0.5 0.24425
vt 0.5 0.125
vt 0.894626 0.161183
vt 0.850325 0.207348
vt 0.65595 0.156817
vt 1 0.25
vt 0.999868 0.22108
# 162 texture verticies
vn -0.92221 -0.0144861 -0.386418
vn -0.909245 -0.0252915 -0.415492
vn -0.934133 -0.00366424 -0.356907
vn 0 0 -1
vn 0.0982019 0.884572 -0.455948
vn 0.107702 0.899371 -0.423713
vn 0.09684 -0.924848 -0.367803
vn 0.0902501 -0.915474 -0.392126
vn 0.10336 -0.933553 -0.343213
vn 0.0885691 0.868581 -0.487568
vn 0.802745 0.00157755 -0.596321
vn 0.80117 0 -0.598437
vn 0.804312 0.00315508 -0.594199
vn 0.134105 -0.953445 0.270108
vn 0.0429263 -0.973713 0.223696
vn 0.292655 -0.949146 0.116081
vn 0.154248 -0.955377 0.251919
vn -0.391279 0.920175 -0.013327
vn -0.391091 0.920258 -0.0131902
vn -0.39185 0.919938 -0.0129294
vn -0.390711 0.920417 -0.0133207
vn -0.390713 0.920422 -0.0129167
vn 0.106729 -0.993805 -0.0309955
vn 0.136992 -0.99057 0.00222966
vn -0.124089 -0.991707 0.0334481
vn 0.147112 -0.971437 0.186193
vn 0.262354 -0.959336 0.104136
vn -0.0827448 -0.98573 0.146595
vn -0.284586 -0.956773 0.0599643
vn 0.0197653 -0.994022 0.107378
vn -0.254207 -0.966212 0.0425889
vn -0.279864 -0.953454 0.112259
vn -0.168324 -0.985719 -0.00508344
vn 0.209279 -0.9766 0.0495365
vn 0.368244 -0.929705 0.00674505
vn 0.354034 -0.935226 0.00343381
vn 0.3814 -0.924384 0.00692077
vn 0.379429 -0.925195 0.00695151
vn 0.353209 -0.935542 0.00195781
vn 0.353972 -0.935255 0.00131035
vn 0.381213 -0.924359 0.015375
vn 0.371781 -0.927951 0.0261899
vn 0.39185 -0.919938 0.0129345
vn 0.388935 -0.921078 0.0185495
vn 0.38051 -0.924351 0.0280716
vn 0.370507 -0.928741 0.0128445
vn 0.377748 -0.925472 0.0284289
vn -0.979846 -0.193075 -0.0512152
vn -0.94925 -0.14965 0.276638
vn -0.982946 -0.043112 0.17877
vn -0.915379 -0.295924 0.272965
vn 0.176003 -0.984275 -0.015049
vn 0.189773 -0.981791 -0.00852717
vn -0.267018 -0.956773 0.115268
vn 0.391222 -0.920145 0.0166867
vn -0.974146 0.0196226 0.225066
vn -0.956479 -0.173415 0.234682
vn -0.945398 -0.202693 0.25522
vn -0.977983 -0.0628683 0.198987
vn -0.965836 0.217092 0.141533
vn -0.954249 0.184635 0.2352
vn -0.998713 -0.00602409 0.0503544
vn -0.967868 0.15603 0.197194
vn -0.728025 0.671151 0.139772
vn -0.999066 -0.0120475 0.0415001
vn -0.947793 0.308994 0.0788111
vn -0.918139 0.307656 0.249739
vn -0.913037 -0.30576 0.269951
vn -0.913101 -0.305111 0.27047
vn -0.91439 -0.306443 0.264544
vn -0.959699 0 0.28103
vn -0.257602 0.962517 0.0848645
vn -0.257875 0.962422 0.085117
vn 0.27905 0.953304 0.115511
vn 0.384095 0.923215 0.0120055
vn 0.292166 0.953469 0.074409
vn 0.206053 0.976571 0.0620582
vn 0.11944 0.97597 0.182254
vn 0.201979 0.978586 0.0396811
vn 0.207744 0.976628 0.0551414
vn 0.15517 0.938041 0.309841
vn -0.24224 0.931099 0.272715
vn -0.383775 0.907065 0.17306
vn 0.731234 0.603787 0.317392
vn 0.352743 0.935711 0.00426406
vn 0.213692 0.974826 0.0636322
vn 0.219691 0.974463 0.0464546
vn 0.231987 0.964094 0.129247
vn 0.200351 0.979533 0.0193443
vn 0.204485 0.965947 0.158529
vn -0.25733 0.962612 0.0846118
vn -0.280263 0.959003 0.0420183
vn 0.197366 0.98017 0.0177248
vn 0.909763 0 0.415129
vn 0.814065 0 0.580774
vn 0.999267 -0.0164263 0.03458
vn 0.999316 -0.0164262 0.033132
vn 0.99989 0 0.0148027
vn 0.988232 0.00707929 0.152797
vn 0.933337 0.253184 0.254519
vn 0.999932 0 0.0116427
vn 0.135705 0 0.990749
vn -0.987055 -0.158765 0.0227019
vn -0.969353 -0.20612 0.133678
vn -0.982965 -0.180561 0.0343175
vn -0.964915 0.258227 0.0475128
vn -0.939885 0.340833 0.0212176
vn -0.939885 0.340833 0.0212176
vn 0.57735 0.57735 0.57735
vn -0.93973 0.341251 0.0213522
vn -0.994197 -0.00593218 0.107409
vn -0.956287 -0.237792 0.170206
vn -0.962957 -0.240052 0.122838
vn -0.999935 -0.00392232 0.010684
vn -0.0463284 -0.97311 0.225633
vn 0.143546 -0.973514 0.177944
vn 0.239505 -0.964878 0.107925
vn -0.247847 -0.968776 0.00666534
vn -0.161521 -0.982184 0.0960532
vn -0.236941 -0.971517 0.00360493
vn -0.23738 -0.971411 0.00350395
vn -0.235626 -0.971836 0.00390784
vn -0.238529 -0.971129 0.0035314
vn -0.238257 -0.971197 0.00330258
vn 0.248016 -0.968645 0.0146461
vn 0.310074 -0.950712 0.00110348
vn 0.307225 -0.951633 0.00267392
vn 0.229065 -0.973372 0.00870506
vn 0.249083 -0.968478 0.00263517
vn 0.31292 -0.949779 -0.000466917
vn 0.318633 -0.947877 0.00138172
vn 0.307195 -0.951644 -0.00231554
vn 0.225316 -0.684183 0.693632
vn 0.236587 0.97124 0.0268174
vn 0.259833 0.965091 0.0329411
vn 0.252219 0.967102 0.0331479
vn 0.267658 0.963176 0.0255009
vn 0.194102 0.970222 0.144895
vn 0.128006 0.975983 0.176269
vn 0.171262 0.984957 0.022985
vn -0.0961511 0.978732 0.181215
vn -0.161097 0.980526 0.112319
vn -0.242357 0.969526 0.0358008
vn -0.245526 0.968748 0.0352749
vn -0.243038 0.969353 0.0358719
vn 0.247363 0.968073 0.0405786
vn -0.248452 0.968024 0.0346529
vn 0.999297 -0.00646244 0.0369268
vn 0.9992 0.00411621 0.0397885
vn 0.9992 0.00411672 0.0397888
vn 0.998568 0.00404885 0.0533385
vn 0.998933 0.019557 0.0418381
vn 0.998564 0.00391704 0.0534291
vn 0.999537 -0.0110586 0.0283314
vn 0.999613 0.00737969 0.0268243
vn 0.999369 0.0154564 0.0319903
vn 0.999484 0.0111679 0.0301023
vn 0.999593 0.00406115 0.0282439
# 158 normals
usemtl Material__1
f 8/1/1 4/2/1 3/3/2
f 4/2/1 8/1/1 5/4/3
usemtl Material__2
f 8/5/4 6/6/4 5/7/4
f 6/6/4 8/5/4 7/8/4
usemtl Material__1
f 7/9/5 3/10/5 2/11/6
f 4/12/7 6/13/7 1/11/8
f 6/13/7 4/12/7 5/14/9
f 3/10/5 7/9/5 8/15/10
f 1/16/11 7/17/11 2/3/12
f 7/17/11 1/16/11 6/18/13
usemtl Material__2
f 10/19/14 13/20/15 14/21/16
f 13/20/15 10/19/14 11/22/17
f 45/23/18 38/24/19 46/25/20
f 39/26/21 36/27/22 38/24/19
f 80/28/23 69/29/24 74/30/25
f 14/21/16 51/31/26 50/32/27
f 33/33/28 13/20/15 32/34/29
f 51/31/26 13/20/15 33/33/28
f 21/35/30 33/33/28 31/36/31
f 51/31/26 33/33/28 21/35/30
f 74/30/25 75/37/32 81/38/33
f 51/31/26 21/35/30 49/39/34
f 44/40/35 41/41/36 42/42/37
f 62/43/38 43/44/39 23/45/40
f 62/43/38 44/40/35 43/44/39
f 45/23/41 22/46/42 46/25/43
f 40/47/44 38/24/45 36/27/46
f 45/23/41 14/21/16 22/46/42
f 40/47/44 39/26/47 38/24/45
f 40/47/44 45/23/41 39/26/47
f 62/43/38 41/41/36 44/40/35
f 62/43/38 40/47/44 41/41/36
f 14/21/16 40/47/44 62/43/38
f 14/21/16 45/23/41 40/47/44
f 22/46/48 50/32/48 63/48/48
f 11/22/49 16/49/50 13/20/51
f 51/31/26 14/21/16 13/20/15
f 73/50/52 80/28/23 79/51/53
f 74/30/25 76/52/54 75/37/32
f 14/21/16 50/32/27 22/46/42
f 44/40/35 42/42/37 27/53/55
f 39/26/21 38/24/19 45/23/18
f 80/28/23 73/50/52 69/29/24
f 80/28/23 74/30/25 81/38/33
f 68/54/56 81/55/57 77/56/58
f 68/54/56 72/57/59 81/55/57
f 48/58/60 16/59/50 12/60/61
f 16/59/50 48/58/60 47/61/62
f 72/57/59 68/54/56 71/62/63
f 48/58/60 12/60/61 19/63/64
f 16/59/50 47/61/62 34/64/65
f 48/58/60 19/63/64 20/65/66
f 71/62/63 68/54/56 67/66/67
f 12/60/61 16/59/50 11/67/49
f 77/56/58 65/68/68 64/69/69
f 77/56/58 75/70/70 65/68/68
f 68/54/56 77/56/58 78/71/71
f 77/56/58 81/55/57 75/70/70
f 66/72/72 70/73/73 71/74/72
f 15/75/74 35/76/75 17/77/76
f 15/75/74 52/78/77 29/79/78
f 29/79/78 52/78/77 55/80/79
f 29/79/78 55/80/79 18/81/80
f 29/79/78 9/82/81 15/75/74
f 29/79/78 12/83/82 9/82/81
f 12/83/82 30/84/83 19/85/64
f 12/83/82 29/79/78 30/84/83
f 35/76/75 24/86/84 37/87/85
f 35/76/75 15/75/74 24/86/84
f 56/88/86 25/89/87 26/90/88
f 25/89/87 56/88/86 54/91/89
f 56/88/86 52/78/77 54/91/89
f 52/78/77 56/88/86 55/80/79
f 15/75/74 17/77/76 52/78/77
f 56/88/86 26/90/88 57/92/90
f 66/72/72 71/74/72 67/93/91
f 19/85/64 30/84/83 28/94/92
f 25/89/87 54/91/89 53/95/93
f 14/96/94 9/97/95 10/98/95
f 60/99/96 62/100/97 59/101/98
f 62/100/97 15/102/99 14/96/94
f 60/99/96 15/102/99 62/100/97
f 61/103/100 15/102/99 60/99/96
f 61/103/100 24/104/84 15/102/99
f 24/104/84 61/103/100 24/104/84
f 24/104/84 61/103/100 58/105/101
f 9/97/95 14/96/94 15/102/99
f 10/106/102 12/107/102 11/5/102
f 12/107/102 10/106/102 9/108/102
f 97/109/103 126/110/104 95/111/105
f 96/112/106 127/113/107 89/114/108
f 97/109/109 126/110/109 97/109/109
f 96/112/106 88/115/110 127/113/107
f 126/110/104 85/116/111 96/112/106
f 126/110/104 98/117/112 85/116/111
f 126/110/104 99/118/113 98/117/112
f 126/110/104 97/109/103 99/118/113
f 85/116/111 98/117/112 82/119/114
f 96/112/106 85/116/111 88/115/110
usemtl Material__3
f 82/120/115 100/121/116 83/122/117
f 98/123/118 113/124/119 82/120/115
f 90/125/120 115/126/121 114/127/122
f 98/123/118 91/128/123 113/124/119
f 112/129/124 91/128/123 98/123/118
f 115/126/121 91/128/123 112/129/124
f 91/128/123 115/126/121 90/125/120
f 102/130/125 83/122/117 100/121/116
f 83/122/117 93/131/126 92/132/127
f 83/122/117 102/130/125 93/131/126
f 102/130/125 101/133/128 107/134/129
f 102/130/125 100/121/116 101/133/128
f 106/135/130 93/131/126 104/136/131
f 93/131/126 106/135/130 103/137/132
f 82/120/115 113/124/119 100/121/116
f 93/131/133 103/137/133 92/132/133
usemtl Material__4
f 122/138/134 120/139/135 125/140/136
f 122/138/134 87/141/137 120/139/135
f 122/138/134 84/142/138 87/141/137
f 124/143/139 122/138/134 123/144/140
f 124/143/139 84/142/138 122/138/134
f 124/143/139 85/145/141 84/142/138
f 111/146/142 85/145/141 124/143/139
f 88/147/143 109/148/144 108/149/145
f 85/145/141 109/148/144 88/147/143
f 125/140/136 120/139/135 121/150/146
f 85/145/141 111/146/142 109/148/144
f 109/148/144 111/146/142 110/151/147
usemtl Material__2
f 94/152/148 105/153/149 86/154/150
f 92/155/151 84/156/152 83/157/153
f 94/152/148 119/158/154 105/153/149
f 118/159/155 119/158/154 94/152/148
f 118/159/155 116/160/156 119/158/154
f 87/161/157 118/159/155 117/162/158
f 84/156/152 118/159/155 87/161/157
f 84/156/152 116/160/156 118/159/155
f 116/160/156 84/156/152 92/155/151
